<svg width="28" height="32" viewBox="0 0 28 32" fill="none" xmlns="http://www.w3.org/2000/svg">
<path d="M26 4.57143H12C10.8937 4.57143 10 3.54786 10 2.28571C10 1.02357 10.8937 0 12 0H26C27.1063 0 28 1.02357 28 2.28571C28 3.54786 27.1063 4.57143 26 4.57143ZM26 22.8571H12C10.8937 22.8571 10 21.8357 10 20.5714C10 19.3071 10.8937 18.2857 12 18.2857H26C27.1063 18.2857 28 19.3071 28 20.5714C28 21.8357 27.1063 22.8571 26 22.8571ZM0 11.4286C0 10.1643 0.895625 9.14286 2 9.14286H26C27.1063 9.14286 28 10.1643 28 11.4286C28 12.6929 27.1063 13.7143 26 13.7143H2C0.895625 13.7143 0 12.6929 0 11.4286ZM26 32H2C0.895625 32 0 30.9786 0 29.7143C0 28.45 0.895625 27.4286 2 27.4286H26C27.1063 27.4286 28 28.45 28 29.7143C28 30.9786 27.1063 32 26 32Z" fill="#EBEBEB"/>
</svg>
