<svg width="258" height="31" viewBox="0 0 258 31" fill="none" xmlns="http://www.w3.org/2000/svg">
<path d="M2.07584 30C1.76784 30 1.50184 29.888 1.27784 29.664C1.05384 29.44 0.941836 29.174 0.941836 28.866V1.734C0.941836 1.426 1.05384 1.16 1.27784 0.935999C1.50184 0.711998 1.76784 0.599998 2.07584 0.599998H23.2438C23.5518 0.599998 23.8178 0.711998 24.0418 0.935999C24.2658 1.16 24.3778 1.426 24.3778 1.734V8.118C24.3778 8.426 24.2658 8.692 24.0418 8.916C23.8178 9.14 23.5518 9.252 23.2438 9.252H11.2318V12.36H22.4038C22.7118 12.36 22.9778 12.472 23.2018 12.696C23.4258 12.92 23.5378 13.186 23.5378 13.494V19.836C23.5378 20.144 23.4258 20.41 23.2018 20.634C22.9778 20.858 22.7118 20.97 22.4038 20.97H11.2318V28.866C11.2318 29.174 11.1198 29.44 10.8958 29.664C10.6718 29.888 10.4058 30 10.0978 30H2.07584ZM13.3318 2.574C12.8278 2.518 12.4498 2.532 12.1978 2.616C11.9458 2.7 11.7078 2.966 11.4838 3.414C11.2598 3.862 11.2038 4.212 11.3158 4.464C11.4278 4.716 11.6658 5.01 12.0298 5.346C12.4218 5.71 12.7438 5.962 12.9958 6.102C13.2478 6.242 13.6118 6.186 14.0878 5.934C14.5918 5.654 14.8718 5.374 14.9278 5.094C14.9838 4.814 14.9558 4.394 14.8438 3.834C14.7598 3.358 14.6058 3.05 14.3818 2.91C14.1578 2.742 13.8078 2.63 13.3318 2.574ZM3.46184 3.75C3.46184 3.554 3.46184 3.4 3.46184 3.288C3.46184 3.176 3.36384 3.092 3.16784 3.036C2.80384 2.924 2.52384 3.022 2.32784 3.33C2.18784 3.526 2.10384 3.694 2.07584 3.834C2.04784 3.946 2.10384 4.1 2.24384 4.296C2.52384 4.632 2.85984 4.73 3.25184 4.59C3.44784 4.506 3.53184 4.394 3.50384 4.254C3.47584 4.114 3.46184 3.946 3.46184 3.75ZM21.5638 3.54C21.4238 3.54 21.3398 3.582 21.3118 3.666C21.2838 3.75 21.2418 3.848 21.1858 3.96C21.1298 4.1 21.0738 4.212 21.0178 4.296C20.9618 4.38 20.9898 4.478 21.1018 4.59C21.2138 4.702 21.3118 4.744 21.3958 4.716C21.4798 4.66 21.6058 4.604 21.7738 4.548C21.9978 4.38 22.0958 4.198 22.0678 4.002C22.0118 3.722 21.8438 3.568 21.5638 3.54ZM18.2878 4.086C18.2318 3.834 18.1198 3.694 17.9518 3.666C17.8118 3.638 17.6018 3.61 17.3218 3.582C17.0978 3.554 16.9298 3.568 16.8178 3.624C16.7058 3.68 16.5938 3.82 16.4818 4.044C16.3978 4.24 16.3838 4.394 16.4398 4.506C16.4958 4.618 16.6078 4.758 16.7758 4.926C16.9998 5.094 17.1678 5.234 17.2798 5.346C17.4198 5.43 17.6158 5.402 17.8678 5.262C18.1198 5.094 18.2738 4.94 18.3298 4.8C18.3858 4.632 18.3718 4.394 18.2878 4.086ZM5.89784 4.296C5.72984 4.184 5.58984 4.1 5.47784 4.044C5.39384 3.988 5.28184 4.03 5.14184 4.17C4.97384 4.31 4.86184 4.436 4.80584 4.548C4.74984 4.66 4.77784 4.828 4.88984 5.052C4.97384 5.248 5.07184 5.346 5.18384 5.346C5.32384 5.346 5.49184 5.332 5.68784 5.304C5.88384 5.276 6.02384 5.248 6.10784 5.22C6.19184 5.164 6.26184 5.038 6.31784 4.842C6.34584 4.674 6.31784 4.562 6.23384 4.506C6.14984 4.45 6.03784 4.38 5.89784 4.296ZM21.2698 6.144L21.0598 5.892L20.7658 6.018L20.5978 6.438L21.1018 6.522L21.2698 6.144ZM9.80384 6.018C9.52384 5.934 9.31384 5.934 9.17384 6.018C9.03384 6.102 8.89384 6.256 8.75384 6.48C8.58584 6.76 8.48784 6.984 8.45984 7.152C8.43184 7.292 8.51584 7.474 8.71184 7.698C8.87984 7.922 9.04784 8.034 9.21584 8.034C9.38384 8.006 9.60784 7.95 9.88784 7.866C10.1398 7.754 10.3218 7.656 10.4338 7.572C10.5738 7.46 10.6298 7.264 10.6018 6.984C10.5738 6.676 10.5038 6.466 10.3918 6.354C10.3078 6.214 10.1118 6.102 9.80384 6.018ZM2.83184 8.286L2.57984 8.412L2.41184 8.748L2.99984 8.58L2.83184 8.286ZM7.03184 8.622L6.52784 8.412L6.23384 8.748L6.44384 9.084H6.77984L7.03184 8.622ZM5.89784 12.234C5.89784 11.786 5.84184 11.464 5.72984 11.268C5.61784 11.044 5.35184 10.876 4.93184 10.764C4.48384 10.624 4.14784 10.596 3.92384 10.68C3.69984 10.764 3.46184 11.002 3.20984 11.394C2.92984 11.758 2.78984 12.066 2.78984 12.318C2.81784 12.542 2.95784 12.836 3.20984 13.2C3.48984 13.536 3.74184 13.704 3.96584 13.704C4.18984 13.704 4.49784 13.634 4.88984 13.494C5.28184 13.382 5.54784 13.256 5.68784 13.116C5.82784 12.948 5.89784 12.654 5.89784 12.234ZM8.87984 13.074L8.54384 13.2L8.37584 13.62L8.83784 13.746L9.21584 13.41L8.87984 13.074ZM13.0378 14.166C12.7858 13.942 12.5058 13.914 12.1978 14.082C11.9458 14.222 11.7498 14.334 11.6098 14.418C11.4698 14.474 11.4138 14.642 11.4418 14.922C11.4978 15.202 11.6098 15.356 11.7778 15.384C11.9458 15.384 12.1698 15.398 12.4498 15.426C12.7018 15.454 12.8838 15.468 12.9958 15.468C13.1358 15.44 13.2618 15.314 13.3738 15.09C13.4858 14.866 13.4998 14.698 13.4158 14.586C13.3598 14.474 13.2338 14.334 13.0378 14.166ZM12.6178 17.4C12.6178 17.148 12.6318 16.938 12.6598 16.77C12.6878 16.602 12.5758 16.476 12.3238 16.392C12.0438 16.308 11.8198 16.294 11.6518 16.35C11.4838 16.378 11.3158 16.518 11.1478 16.77C10.9798 16.994 10.9518 17.176 11.0638 17.316C11.1758 17.428 11.3158 17.596 11.4838 17.82C11.6238 17.988 11.7358 18.1 11.8198 18.156C11.9318 18.184 12.0858 18.17 12.2818 18.114C12.4778 18.058 12.5758 17.974 12.5758 17.862C12.6038 17.75 12.6178 17.596 12.6178 17.4ZM8.45984 17.106C8.20784 16.938 7.99784 16.868 7.82984 16.896C7.66184 16.924 7.45184 17.05 7.19984 17.274C6.91984 17.498 6.70984 17.694 6.56984 17.862C6.45784 18.002 6.45784 18.24 6.56984 18.576C6.70984 18.94 6.87784 19.15 7.07384 19.206C7.29784 19.234 7.59184 19.234 7.95584 19.206C8.26384 19.178 8.47384 19.108 8.58584 18.996C8.69784 18.856 8.79584 18.632 8.87984 18.324C8.96384 18.016 8.97784 17.778 8.92184 17.61C8.89384 17.442 8.73984 17.274 8.45984 17.106ZM3.75584 18.24L3.54584 17.862L3.16784 18.156L3.25184 18.618H3.71384L3.75584 18.24ZM15.6838 17.904C15.5158 17.848 15.3898 17.862 15.3058 17.946C15.2498 18.03 15.1658 18.142 15.0538 18.282C14.8858 18.478 14.8718 18.688 15.0118 18.912C15.1238 19.08 15.2078 19.22 15.2638 19.332C15.3198 19.444 15.4458 19.472 15.6418 19.416C15.8658 19.36 15.9918 19.276 16.0198 19.164C16.0478 19.052 16.0618 18.884 16.0618 18.66C16.0618 18.436 16.0478 18.282 16.0198 18.198C15.9918 18.086 15.8798 17.988 15.6838 17.904ZM19.3798 18.618C19.2678 18.478 19.1698 18.38 19.0858 18.324C19.0018 18.268 18.8758 18.268 18.7078 18.324C18.4838 18.408 18.3018 18.478 18.1618 18.534C18.0498 18.59 17.9938 18.744 17.9938 18.996C18.0218 19.276 18.0778 19.472 18.1618 19.584C18.2738 19.668 18.4698 19.738 18.7498 19.794C19.0018 19.878 19.1978 19.906 19.3378 19.878C19.5058 19.85 19.6598 19.724 19.7998 19.5C19.9398 19.304 19.9398 19.164 19.7998 19.08C19.6878 18.968 19.5478 18.814 19.3798 18.618ZM5.98184 21.18C5.92584 20.956 5.82784 20.816 5.68784 20.76C5.57584 20.704 5.40784 20.676 5.18384 20.676C4.84784 20.676 4.60984 20.844 4.46984 21.18C4.38584 21.404 4.32984 21.586 4.30184 21.726C4.30184 21.838 4.39984 21.978 4.59584 22.146C4.79184 22.286 4.94584 22.356 5.05784 22.356C5.19784 22.328 5.37984 22.244 5.60384 22.104C5.79984 21.964 5.92584 21.838 5.98184 21.726C6.06584 21.614 6.06584 21.432 5.98184 21.18ZM7.24184 25.338C7.18584 24.806 7.11584 24.4 7.03184 24.12C6.94784 23.84 6.65384 23.644 6.14984 23.532C5.53384 23.392 5.05784 23.364 4.72184 23.448C4.41384 23.532 4.10584 23.84 3.79784 24.372C3.48984 24.96 3.34984 25.422 3.37784 25.758C3.43384 26.094 3.67184 26.5 4.09184 26.976C4.48384 27.396 4.83384 27.578 5.14184 27.522C5.44984 27.438 5.86984 27.284 6.40184 27.06C6.84984 26.864 7.11584 26.654 7.19984 26.43C7.28384 26.178 7.29784 25.814 7.24184 25.338ZM41.1611 30.42C38.4171 30.42 36.0091 30 33.9371 29.16C31.8931 28.32 30.2691 27.06 29.0651 25.38C27.8891 23.672 27.2451 21.572 27.1331 19.08C27.0491 16.672 27.0491 14.208 27.1331 11.688C27.2451 9.224 27.8891 7.138 29.0651 5.43C30.2411 3.722 31.8651 2.42 33.9371 1.524C36.0091 0.627998 38.4171 0.179998 41.1611 0.179998C43.9051 0.179998 46.3131 0.627998 48.3851 1.524C50.4571 2.42 52.0811 3.722 53.2571 5.43C54.4611 7.138 55.1051 9.224 55.1891 11.688C55.2731 14.208 55.2731 16.672 55.1891 19.08C55.0771 21.572 54.4191 23.672 53.2151 25.38C52.0391 27.06 50.4151 28.32 48.3431 29.16C46.2991 30 43.9051 30.42 41.1611 30.42ZM43.2611 2.952C42.6731 2.7 42.2111 2.476 41.8751 2.28C41.5391 2.084 41.1751 2.224 40.7831 2.7C40.3631 3.176 40.2651 3.568 40.4891 3.876C40.7411 4.184 41.0211 4.604 41.3291 5.136C41.6091 5.584 41.8471 5.906 42.0431 6.102C42.2391 6.27 42.5891 6.298 43.0931 6.186C43.5971 6.074 43.8771 5.892 43.9331 5.64C44.0171 5.36 44.0871 4.968 44.1431 4.464C44.1711 4.016 44.1291 3.694 44.0171 3.498C43.9051 3.302 43.6531 3.12 43.2611 2.952ZM48.2591 3.204C48.0071 3.064 47.7971 3.064 47.6291 3.204C47.4891 3.316 47.3771 3.414 47.2931 3.498C47.2371 3.582 47.2371 3.708 47.2931 3.876C47.3771 4.072 47.4611 4.184 47.5451 4.212C47.6571 4.212 47.8111 4.212 48.0071 4.212C48.1471 4.212 48.2311 4.17 48.2591 4.086C48.2871 4.002 48.3291 3.89 48.3851 3.75C48.4411 3.498 48.3991 3.316 48.2591 3.204ZM37.2551 4.59C37.1991 4.198 37.0451 3.988 36.7931 3.96C36.5411 3.932 36.2191 3.89 35.8271 3.834C35.4351 3.778 35.1131 3.736 34.8611 3.708C34.6371 3.68 34.4411 3.848 34.2731 4.212C34.0771 4.576 34.0631 4.842 34.2311 5.01C34.4271 5.15 34.6791 5.36 34.9871 5.64C35.2391 5.892 35.4491 6.06 35.6171 6.144C35.7851 6.228 36.0231 6.186 36.3311 6.018C36.6951 5.822 36.9611 5.64 37.1291 5.472C37.2971 5.304 37.3391 5.01 37.2551 4.59ZM47.9231 5.262L47.5031 5.094L47.3351 5.472L47.4611 5.808L47.8811 5.724L47.9231 5.262ZM50.4431 5.892C50.1911 5.808 49.9951 5.738 49.8551 5.682C49.7431 5.626 49.6031 5.696 49.4351 5.892C49.2671 6.088 49.1971 6.256 49.2251 6.396C49.2531 6.508 49.3371 6.676 49.4771 6.9C49.5611 7.096 49.6591 7.208 49.7711 7.236C49.9111 7.236 50.0791 7.222 50.2751 7.194C50.4711 7.138 50.5831 7.068 50.6111 6.984C50.6391 6.9 50.6671 6.76 50.6951 6.564C50.7231 6.396 50.7231 6.27 50.6951 6.186C50.6671 6.074 50.5831 5.976 50.4431 5.892ZM33.1811 6.564C32.9291 6.564 32.7471 6.578 32.6351 6.606C32.5231 6.634 32.4251 6.76 32.3411 6.984C32.2571 7.208 32.2431 7.376 32.2991 7.488C32.3831 7.572 32.5231 7.684 32.7191 7.824C32.9431 8.02 33.1111 8.188 33.2231 8.328C33.3631 8.44 33.5591 8.412 33.8111 8.244C34.0631 8.076 34.1751 7.908 34.1471 7.74C34.1191 7.572 34.0631 7.334 33.9791 7.026C33.9231 6.802 33.8251 6.676 33.6851 6.648C33.5731 6.592 33.4051 6.564 33.1811 6.564ZM47.2091 7.11L46.8311 7.194L46.8731 7.572L47.2091 7.698L47.4611 7.404L47.2091 7.11ZM41.1611 22.23C42.0851 22.23 42.8271 21.964 43.3871 21.432C43.9471 20.872 44.2411 20.004 44.2691 18.828C44.3531 16.42 44.3531 14.068 44.2691 11.772C44.2411 10.596 43.9331 9.742 43.3451 9.21C42.7851 8.65 42.0571 8.37 41.1611 8.37C40.2651 8.37 39.5371 8.65 38.9771 9.21C38.4171 9.742 38.1091 10.596 38.0531 11.772C37.9691 14.068 37.9691 16.42 38.0531 18.828C38.1091 20.004 38.4031 20.872 38.9351 21.432C39.4951 21.964 40.2371 22.23 41.1611 22.23ZM48.5951 9.882C48.2591 9.77 48.0071 9.784 47.8391 9.924C47.6991 10.036 47.5171 10.232 47.2931 10.512C47.0691 10.792 46.9151 11.016 46.8311 11.184C46.7471 11.352 46.8031 11.59 46.9991 11.898C47.1951 12.206 47.3911 12.388 47.5871 12.444C47.7831 12.472 48.0631 12.444 48.4271 12.36C48.8191 12.248 49.1131 12.15 49.3091 12.066C49.5331 11.954 49.6591 11.688 49.6871 11.268C49.7151 10.82 49.6451 10.526 49.4771 10.386C49.3091 10.218 49.0151 10.05 48.5951 9.882ZM50.5691 9.798L50.2331 9.966L50.2751 10.344L50.6531 10.47L50.7371 10.092L50.5691 9.798ZM34.9031 10.722C34.7071 10.694 34.5531 10.652 34.4411 10.596C34.3291 10.512 34.2171 10.554 34.1051 10.722C33.9931 10.89 33.9651 11.03 34.0211 11.142C34.0771 11.226 34.1751 11.352 34.3151 11.52C34.4551 11.66 34.5671 11.772 34.6511 11.856C34.7351 11.912 34.8611 11.912 35.0291 11.856C35.2251 11.772 35.3091 11.674 35.2811 11.562C35.2811 11.45 35.2811 11.296 35.2811 11.1C35.2811 10.932 35.1551 10.806 34.9031 10.722ZM32.0051 11.352C31.9491 11.156 31.8091 11.058 31.5851 11.058C31.4451 11.058 31.3331 11.072 31.2491 11.1C31.1651 11.1 31.1091 11.17 31.0811 11.31C30.9971 11.562 31.0531 11.772 31.2491 11.94C31.4451 12.052 31.6551 12.038 31.8791 11.898C32.0471 11.758 32.0891 11.576 32.0051 11.352ZM35.6591 13.788C35.5471 13.452 35.3931 13.27 35.1971 13.242C35.0291 13.214 34.7631 13.2 34.3991 13.2C34.1471 13.2 33.9791 13.256 33.8951 13.368C33.8391 13.48 33.7691 13.662 33.6851 13.914C33.6011 14.166 33.5311 14.376 33.4751 14.544C33.4471 14.684 33.5451 14.838 33.7691 15.006C33.9931 15.174 34.1751 15.23 34.3151 15.174C34.4551 15.118 34.6371 15.006 34.8611 14.838C35.1411 14.67 35.3651 14.53 35.5331 14.418C35.7011 14.306 35.7431 14.096 35.6591 13.788ZM47.2931 13.326C46.9291 13.186 46.6491 13.256 46.4531 13.536C46.2291 13.816 46.2151 14.11 46.4111 14.418C46.5231 14.586 46.6351 14.67 46.7471 14.67C46.8591 14.67 47.0131 14.642 47.2091 14.586C47.3771 14.558 47.4751 14.502 47.5031 14.418C47.5311 14.306 47.5451 14.166 47.5451 13.998C47.5451 13.83 47.5451 13.69 47.5451 13.578C47.5451 13.466 47.4611 13.382 47.2931 13.326ZM51.9551 13.494C51.7311 13.438 51.5771 13.466 51.4931 13.578C51.4371 13.662 51.3531 13.802 51.2411 13.998C51.1011 14.222 51.1151 14.446 51.2831 14.67C51.4511 14.838 51.5771 14.992 51.6611 15.132C51.7451 15.244 51.8851 15.244 52.0811 15.132C52.3331 15.048 52.4871 14.95 52.5431 14.838C52.5991 14.698 52.6131 14.502 52.5851 14.25C52.5571 13.83 52.3471 13.578 51.9551 13.494ZM51.0311 16.308C50.8351 16.28 50.6951 16.294 50.6111 16.35C50.5551 16.406 50.4991 16.518 50.4431 16.686C50.3591 16.826 50.3031 16.952 50.2751 17.064C50.2751 17.148 50.3311 17.246 50.4431 17.358C50.5551 17.498 50.6531 17.554 50.7371 17.526C50.8491 17.47 50.9751 17.414 51.1151 17.358C51.3671 17.218 51.4791 17.05 51.4511 16.854C51.4231 16.686 51.3811 16.56 51.3251 16.476C51.2971 16.392 51.1991 16.336 51.0311 16.308ZM47.3351 16.812C46.9431 16.644 46.6211 16.714 46.3691 17.022C46.0891 17.33 46.0611 17.652 46.2851 17.988C46.3971 18.212 46.5091 18.338 46.6211 18.366C46.7611 18.394 46.9431 18.394 47.1671 18.366C47.3911 18.31 47.5311 18.226 47.5871 18.114C47.6431 18.002 47.6851 17.834 47.7131 17.61C47.7411 17.386 47.7271 17.218 47.6711 17.106C47.6431 16.994 47.5311 16.896 47.3351 16.812ZM31.4171 17.778C31.2491 17.526 31.0811 17.442 30.9131 17.526C30.7451 17.61 30.5071 17.694 30.1991 17.778C29.9471 17.862 29.7511 17.932 29.6111 17.988C29.4711 18.044 29.4011 18.212 29.4011 18.492C29.4011 18.828 29.4291 19.094 29.4851 19.29C29.5411 19.458 29.7371 19.598 30.0731 19.71C30.4091 19.794 30.6471 19.794 30.7871 19.71C30.9551 19.598 31.1371 19.402 31.3331 19.122C31.5291 18.842 31.6411 18.618 31.6691 18.45C31.7251 18.282 31.6411 18.058 31.4171 17.778ZM52.7111 19.374C52.3191 19.234 52.0251 19.22 51.8291 19.332C51.6331 19.444 51.4091 19.668 51.1571 20.004C50.9051 20.34 50.7511 20.62 50.6951 20.844C50.6671 21.068 50.7791 21.348 51.0311 21.684C51.2551 22.02 51.4791 22.174 51.7031 22.146C51.9271 22.118 52.2351 22.048 52.6271 21.936C52.9071 21.824 53.0611 21.684 53.0891 21.516C53.1171 21.348 53.1311 21.11 53.1311 20.802C53.1311 20.438 53.1451 20.144 53.1731 19.92C53.2291 19.668 53.0751 19.486 52.7111 19.374ZM36.5411 19.836C36.4851 19.612 36.3871 19.486 36.2471 19.458C36.1351 19.43 35.9671 19.416 35.7431 19.416C35.4351 19.388 35.2251 19.528 35.1131 19.836C35.0291 20.004 34.9871 20.144 34.9871 20.256C35.0151 20.368 35.0991 20.48 35.2391 20.592C35.4071 20.732 35.5331 20.788 35.6171 20.76C35.7291 20.704 35.8691 20.634 36.0371 20.55C36.2051 20.41 36.3451 20.312 36.4571 20.256C36.5691 20.172 36.5971 20.032 36.5411 19.836ZM46.7891 20.382L46.3691 19.962L45.9911 20.508L46.3271 20.886H46.8731L46.7891 20.382ZM32.6771 20.382L32.3831 20.214L32.2991 20.508L32.4251 20.844L32.7611 20.676L32.6771 20.382ZM35.3651 22.398C35.2251 22.202 35.0291 22.132 34.7771 22.188C34.5811 22.244 34.4131 22.286 34.2731 22.314C34.1331 22.342 34.0631 22.454 34.0631 22.65C34.0631 22.874 34.1051 23.042 34.1891 23.154C34.2731 23.238 34.4271 23.322 34.6511 23.406C34.8191 23.462 34.9311 23.448 34.9871 23.364C35.0431 23.252 35.1411 23.126 35.2811 22.986C35.4491 22.762 35.4771 22.566 35.3651 22.398ZM46.7051 22.986C46.7051 22.622 46.5511 22.398 46.2431 22.314C46.0751 22.258 45.9631 22.286 45.9071 22.398C45.8791 22.482 45.8091 22.594 45.6971 22.734C45.5851 22.874 45.4871 22.986 45.4031 23.07C45.3191 23.154 45.3191 23.28 45.4031 23.448C45.5431 23.588 45.6551 23.658 45.7391 23.658C45.8511 23.63 46.0051 23.574 46.2011 23.49C46.3691 23.434 46.4951 23.378 46.5791 23.322C46.6631 23.266 46.7051 23.154 46.7051 22.986ZM49.3511 22.692C49.1271 22.524 48.9451 22.454 48.8051 22.482C48.6651 22.51 48.4831 22.594 48.2591 22.734C48.0351 22.874 47.9091 23.014 47.8811 23.154C47.8531 23.266 47.8811 23.448 47.9651 23.7C48.0491 24.064 48.2871 24.26 48.6791 24.288C49.0711 24.316 49.3371 24.148 49.4771 23.784C49.5611 23.532 49.6171 23.336 49.6451 23.196C49.6731 23.028 49.5751 22.86 49.3511 22.692ZM30.4091 22.776C30.2691 22.636 30.0871 22.608 29.8631 22.692C29.7511 22.748 29.6531 22.804 29.5691 22.86C29.5131 22.888 29.4851 22.972 29.4851 23.112C29.4851 23.28 29.4991 23.406 29.5271 23.49C29.5831 23.574 29.6951 23.63 29.8631 23.658C30.0591 23.714 30.2131 23.742 30.3251 23.742C30.4371 23.742 30.5491 23.658 30.6611 23.49C30.7731 23.322 30.7871 23.196 30.7031 23.112C30.6191 23.028 30.5211 22.916 30.4091 22.776ZM43.3031 23.826L43.0511 23.532L42.6311 23.574L42.7151 23.994L43.0511 24.162L43.3031 23.826ZM37.4651 23.784L37.2131 23.868L37.2551 24.162L37.5491 24.246L37.4651 23.784ZM39.4391 24.036C39.1871 23.98 38.9911 24.05 38.8511 24.246C38.7391 24.414 38.6411 24.554 38.5571 24.666C38.5011 24.778 38.5291 24.918 38.6411 25.086C38.7811 25.254 38.9071 25.324 39.0191 25.296C39.1591 25.24 39.3271 25.17 39.5231 25.086C39.7191 25.002 39.8731 24.946 39.9851 24.918C40.0971 24.862 40.1531 24.722 40.1531 24.498C40.1531 24.302 40.0831 24.19 39.9431 24.162C39.8031 24.134 39.6351 24.092 39.4391 24.036ZM41.3291 24.288L40.8251 24.204L40.8671 24.708L41.2031 24.918L41.4131 24.624L41.3291 24.288ZM34.2731 24.834C33.9091 24.666 33.6151 24.568 33.3911 24.54C33.1951 24.512 32.9571 24.652 32.6771 24.96C32.3971 25.24 32.2711 25.492 32.2991 25.716C32.3271 25.912 32.4391 26.192 32.6351 26.556C32.8031 26.892 32.9711 27.116 33.1391 27.228C33.3071 27.312 33.5731 27.326 33.9371 27.27C34.3291 27.186 34.5951 27.074 34.7351 26.934C34.9031 26.794 35.0151 26.528 35.0711 26.136C35.1271 25.772 35.0851 25.506 34.9451 25.338C34.8331 25.17 34.6091 25.002 34.2731 24.834ZM47.1251 25.716L46.7051 25.926L46.4111 26.346L46.9571 26.43L47.3351 26.22L47.1251 25.716ZM42.3791 25.758C41.9031 25.702 41.5531 25.744 41.3291 25.884C41.1051 26.024 40.8811 26.318 40.6571 26.766C40.4611 27.214 40.3771 27.578 40.4051 27.858C40.4611 28.11 40.6851 28.39 41.0771 28.698C41.4411 29.034 41.7491 29.216 42.0011 29.244C42.2811 29.272 42.6311 29.16 43.0511 28.908C43.4711 28.656 43.7231 28.418 43.8071 28.194C43.9191 27.942 43.9191 27.578 43.8071 27.102C43.7231 26.626 43.5831 26.304 43.3871 26.136C43.2191 25.94 42.8831 25.814 42.3791 25.758ZM36.6671 27.438C36.4711 27.41 36.3171 27.41 36.2051 27.438C36.1211 27.438 36.0371 27.508 35.9531 27.648C35.7851 27.9 35.7991 28.152 35.9951 28.404C36.1911 28.656 36.4291 28.726 36.7091 28.614C37.0451 28.502 37.1991 28.292 37.1711 27.984C37.1711 27.816 37.1291 27.704 37.0451 27.648C36.9611 27.564 36.8351 27.494 36.6671 27.438ZM60.195 30C59.887 30 59.621 29.888 59.397 29.664C59.173 29.44 59.061 29.174 59.061 28.866V1.734C59.061 1.426 59.173 1.16 59.397 0.935999C59.621 0.711998 59.887 0.599998 60.195 0.599998H68.595C68.903 0.599998 69.169 0.711998 69.393 0.935999C69.617 1.16 69.729 1.426 69.729 1.734V21.39H81.363C81.671 21.39 81.937 21.502 82.161 21.726C82.385 21.95 82.497 22.216 82.497 22.524V28.866C82.497 29.174 82.385 29.44 82.161 29.664C81.937 29.888 81.671 30 81.363 30H60.195ZM64.983 3.162L64.689 3.582V4.044L65.193 3.96L65.361 3.582L64.983 3.162ZM61.749 4.002C61.441 3.89 61.189 3.792 60.993 3.708C60.825 3.596 60.643 3.68 60.447 3.96C60.251 4.212 60.223 4.422 60.363 4.59C60.503 4.73 60.671 4.94 60.867 5.22C61.007 5.416 61.133 5.542 61.245 5.598C61.385 5.654 61.581 5.64 61.833 5.556C62.057 5.472 62.197 5.374 62.253 5.262C62.309 5.15 62.337 4.968 62.337 4.716C62.337 4.492 62.295 4.338 62.211 4.254C62.127 4.142 61.973 4.058 61.749 4.002ZM64.647 5.346L64.437 4.884L63.975 5.136L63.933 5.598L64.395 5.724L64.647 5.346ZM66.075 4.968C65.823 4.94 65.655 5.01 65.571 5.178C65.515 5.29 65.501 5.388 65.529 5.472C65.585 5.528 65.669 5.598 65.781 5.682C65.949 5.822 66.117 5.864 66.285 5.808C66.425 5.724 66.523 5.654 66.579 5.598C66.663 5.542 66.691 5.43 66.663 5.262C66.607 5.094 66.537 5.01 66.453 5.01C66.369 5.01 66.243 4.996 66.075 4.968ZM68.259 5.976L67.629 5.892L67.293 6.396L67.713 6.9L68.301 6.648L68.259 5.976ZM64.437 8.412C64.129 8.104 63.863 7.992 63.639 8.076C63.415 8.16 63.107 8.3 62.715 8.496C62.323 8.664 62.015 8.818 61.791 8.958C61.595 9.07 61.525 9.336 61.581 9.756C61.637 10.176 61.763 10.442 61.959 10.554C62.183 10.666 62.519 10.764 62.967 10.848C63.331 10.932 63.583 10.918 63.723 10.806C63.863 10.666 64.031 10.428 64.227 10.092C64.423 9.728 64.577 9.434 64.689 9.21C64.801 8.986 64.717 8.72 64.437 8.412ZM67.335 9.294C67.223 9.182 67.125 9.112 67.041 9.084C66.985 9.028 66.887 9.028 66.747 9.084C66.467 9.224 66.341 9.434 66.369 9.714C66.425 10.05 66.593 10.246 66.873 10.302C67.041 10.33 67.153 10.302 67.209 10.218C67.293 10.134 67.377 10.022 67.461 9.882C67.545 9.686 67.503 9.49 67.335 9.294ZM64.059 12.57C63.863 12.346 63.681 12.248 63.513 12.276C63.345 12.276 63.121 12.346 62.841 12.486C62.561 12.598 62.337 12.71 62.169 12.822C62.001 12.906 61.931 13.116 61.959 13.452C61.987 13.816 62.057 14.082 62.169 14.25C62.281 14.418 62.533 14.544 62.925 14.628C63.317 14.74 63.611 14.768 63.807 14.712C64.031 14.656 64.255 14.446 64.479 14.082C64.675 13.746 64.717 13.494 64.605 13.326C64.493 13.13 64.311 12.878 64.059 12.57ZM68.763 15.762L68.259 15.552L67.881 15.888L68.049 16.434L68.553 16.224L68.763 15.762ZM63.597 16.812C63.541 16.504 63.457 16.294 63.345 16.182C63.233 16.07 63.023 16 62.715 15.972C62.435 15.944 62.253 16.014 62.169 16.182C62.113 16.322 62.029 16.518 61.917 16.77C61.833 16.994 61.805 17.162 61.833 17.274C61.861 17.386 61.959 17.526 62.127 17.694C62.267 17.806 62.393 17.834 62.505 17.778C62.617 17.722 62.757 17.638 62.925 17.526C63.121 17.386 63.289 17.302 63.429 17.274C63.597 17.218 63.653 17.064 63.597 16.812ZM65.697 18.828L65.319 18.786L65.193 19.122L65.445 19.584L65.781 19.206L65.697 18.828ZM61.329 19.92L61.077 19.5L60.615 19.752L60.573 20.298L61.077 20.256L61.329 19.92ZM67.671 22.398C67.615 21.894 67.433 21.614 67.125 21.558C66.845 21.502 66.453 21.418 65.949 21.306C65.501 21.194 65.151 21.138 64.899 21.138C64.647 21.138 64.395 21.334 64.143 21.726C63.891 22.174 63.779 22.538 63.807 22.818C63.835 23.098 64.017 23.42 64.353 23.784C64.689 24.148 64.983 24.344 65.235 24.372C65.515 24.4 65.879 24.316 66.327 24.12C66.831 23.896 67.195 23.686 67.419 23.49C67.643 23.294 67.727 22.93 67.671 22.398ZM77.835 24.162C77.639 23.63 77.401 23.322 77.121 23.238C76.841 23.126 76.421 23.084 75.861 23.112C75.245 23.14 74.769 23.196 74.433 23.28C74.097 23.336 73.845 23.672 73.677 24.288C73.509 24.848 73.579 25.212 73.887 25.38C74.223 25.548 74.643 25.786 75.147 26.094C75.595 26.402 75.945 26.64 76.197 26.808C76.477 26.948 76.827 26.85 77.247 26.514C77.723 26.122 77.989 25.772 78.045 25.464C78.129 25.156 78.059 24.722 77.835 24.162ZM70.485 23.532C70.205 23.336 69.925 23.364 69.645 23.616C69.449 23.756 69.323 23.882 69.267 23.994C69.211 24.078 69.225 24.218 69.309 24.414C69.393 24.638 69.477 24.778 69.561 24.834C69.673 24.89 69.855 24.918 70.107 24.918C70.303 24.918 70.415 24.876 70.443 24.792C70.499 24.68 70.555 24.526 70.611 24.33C70.667 24.134 70.695 23.98 70.695 23.868C70.723 23.756 70.653 23.644 70.485 23.532ZM72.795 23.868C72.599 23.644 72.361 23.588 72.081 23.7C71.941 23.756 71.871 23.84 71.871 23.952C71.871 24.036 71.871 24.162 71.871 24.33C71.899 24.582 72.011 24.736 72.207 24.792C72.403 24.82 72.557 24.862 72.669 24.918C72.809 24.974 72.935 24.918 73.047 24.75C73.159 24.554 73.187 24.4 73.131 24.288C73.075 24.176 72.963 24.036 72.795 23.868ZM80.523 24.246L80.313 23.952L79.893 24.12L80.061 24.456L80.355 24.54L80.523 24.246ZM80.733 25.548C80.677 25.38 80.593 25.296 80.481 25.296C80.397 25.296 80.285 25.296 80.145 25.296C79.949 25.296 79.809 25.408 79.725 25.632C79.697 25.8 79.767 25.94 79.935 26.052C80.075 26.164 80.173 26.248 80.229 26.304C80.313 26.36 80.411 26.346 80.523 26.262C80.775 26.066 80.845 25.828 80.733 25.548ZM65.907 25.8C65.683 25.632 65.501 25.548 65.361 25.548C65.221 25.52 65.025 25.576 64.773 25.716C64.549 25.884 64.423 26.052 64.395 26.22C64.395 26.36 64.437 26.556 64.521 26.808C64.577 27.032 64.675 27.158 64.815 27.186C64.955 27.186 65.137 27.186 65.361 27.186C65.585 27.186 65.767 27.186 65.907 27.186C66.047 27.186 66.159 27.074 66.243 26.85C66.327 26.598 66.341 26.402 66.285 26.262C66.257 26.122 66.131 25.968 65.907 25.8ZM69.477 26.43C69.309 26.178 69.155 26.038 69.015 26.01C68.875 25.982 68.665 26.01 68.385 26.094C68.105 26.178 67.895 26.276 67.755 26.388C67.643 26.472 67.587 26.654 67.587 26.934C67.587 27.214 67.657 27.396 67.797 27.48C67.937 27.536 68.133 27.606 68.385 27.69C68.609 27.774 68.791 27.83 68.931 27.858C69.071 27.858 69.211 27.76 69.351 27.564C69.547 27.34 69.659 27.158 69.687 27.018C69.715 26.85 69.645 26.654 69.477 26.43ZM72.753 26.178C72.501 26.066 72.291 26.122 72.123 26.346C71.927 26.57 71.899 26.78 72.039 26.976C72.123 27.116 72.207 27.186 72.291 27.186C72.375 27.186 72.501 27.172 72.669 27.144C72.893 27.06 73.019 26.92 73.047 26.724C73.075 26.444 72.977 26.262 72.753 26.178ZM80.187 27.354L79.935 27.144L79.557 27.312L79.767 27.69H80.145L80.187 27.354ZM66.873 27.858L66.327 27.942V28.404L66.663 28.656L66.873 28.32V27.858ZM86.486 30C86.178 30 85.912 29.888 85.688 29.664C85.464 29.44 85.352 29.174 85.352 28.866V1.734C85.352 1.426 85.464 1.16 85.688 0.935999C85.912 0.711998 86.178 0.599998 86.486 0.599998H95.054C95.362 0.599998 95.628 0.711998 95.852 0.935999C96.076 1.16 96.188 1.426 96.188 1.734V28.866C96.188 29.174 96.076 29.44 95.852 29.664C95.628 29.888 95.362 30 95.054 30H86.486ZM90.812 1.734C90.532 1.706 90.322 1.734 90.182 1.818C90.07 1.902 89.958 2.07 89.846 2.322C89.734 2.574 89.706 2.756 89.762 2.868C89.846 2.98 90 3.12 90.224 3.288C90.448 3.484 90.616 3.652 90.728 3.792C90.868 3.904 91.064 3.876 91.316 3.708C91.596 3.54 91.722 3.372 91.694 3.204C91.666 3.036 91.61 2.812 91.526 2.532C91.47 2.252 91.4 2.056 91.316 1.944C91.232 1.832 91.064 1.762 90.812 1.734ZM87.872 2.364L87.494 2.406L87.578 2.826H87.956L87.872 2.364ZM89.216 4.422L88.754 4.296L88.67 4.884L89.174 5.178L89.552 4.758L89.216 4.422ZM91.862 5.01C91.806 4.898 91.764 4.814 91.736 4.758C91.708 4.674 91.624 4.632 91.484 4.632C91.232 4.66 91.078 4.814 91.022 5.094C90.994 5.206 91.008 5.29 91.064 5.346C91.148 5.374 91.246 5.416 91.358 5.472C91.47 5.528 91.554 5.584 91.61 5.64C91.694 5.668 91.778 5.64 91.862 5.556C91.974 5.472 92.016 5.402 91.988 5.346C91.96 5.262 91.918 5.15 91.862 5.01ZM87.788 5.556L87.578 5.304L87.158 5.388L87.368 5.724L87.704 5.976L87.788 5.556ZM94.844 6.396L94.424 6.48L94.55 6.942L95.012 7.068L95.18 6.648L94.844 6.396ZM87.872 7.488L87.62 7.32L87.242 7.446L87.368 7.908H87.872V7.488ZM91.526 8.244C91.33 8.076 91.106 8.076 90.854 8.244C90.714 8.328 90.602 8.412 90.518 8.496C90.462 8.58 90.448 8.706 90.476 8.874C90.588 9.21 90.798 9.392 91.106 9.42C91.302 9.42 91.428 9.392 91.484 9.336C91.54 9.252 91.61 9.112 91.694 8.916C91.806 8.664 91.75 8.44 91.526 8.244ZM88.712 8.538L88.376 8.244L88.166 8.622V8.958H88.586L88.712 8.538ZM94.634 9.84L94.13 10.008L94.34 10.428L94.676 10.512L94.97 10.218L94.634 9.84ZM87.494 10.974L86.99 10.638L86.57 10.974L86.78 11.436L87.242 11.478L87.494 10.974ZM93.374 11.436C93.346 11.184 93.262 11.03 93.122 10.974C93.01 10.918 92.828 10.862 92.576 10.806C92.38 10.778 92.24 10.806 92.156 10.89C92.1 10.974 92.03 11.1 91.946 11.268C91.862 11.436 91.806 11.576 91.778 11.688C91.778 11.772 91.834 11.884 91.946 12.024C92.114 12.192 92.24 12.304 92.324 12.36C92.436 12.416 92.59 12.388 92.786 12.276C93.01 12.164 93.164 12.066 93.248 11.982C93.36 11.87 93.402 11.688 93.374 11.436ZM90.014 12.192C89.594 12.08 89.272 12.08 89.048 12.192C88.852 12.304 88.628 12.542 88.376 12.906C88.18 13.242 88.124 13.508 88.208 13.704C88.32 13.9 88.502 14.138 88.754 14.418C89.006 14.726 89.216 14.936 89.384 15.048C89.552 15.16 89.804 15.146 90.14 15.006C90.588 14.81 90.924 14.642 91.148 14.502C91.4 14.362 91.512 14.054 91.484 13.578C91.456 13.074 91.316 12.752 91.064 12.612C90.84 12.444 90.49 12.304 90.014 12.192ZM93.794 13.2L93.5 13.242L93.29 13.578L93.71 13.746L94.088 13.494L93.794 13.2ZM88.124 16.98C87.872 16.952 87.732 17.022 87.704 17.19C87.676 17.33 87.62 17.512 87.536 17.736C87.452 17.96 87.368 18.142 87.284 18.282C87.228 18.394 87.284 18.52 87.452 18.66C87.62 18.8 87.76 18.828 87.872 18.744C87.984 18.632 88.138 18.52 88.334 18.408C88.53 18.296 88.698 18.212 88.838 18.156C88.978 18.1 89.02 17.946 88.964 17.694C88.908 17.442 88.824 17.274 88.712 17.19C88.6 17.078 88.404 17.008 88.124 16.98ZM90.938 17.316L90.518 17.4L90.728 17.82L91.19 17.946L91.316 17.484L90.938 17.316ZM94.844 19.458L94.55 19.248L94.424 19.584L94.592 19.962L94.886 19.71L94.844 19.458ZM91.106 19.92C90.91 19.724 90.672 19.696 90.392 19.836C90.112 19.976 90 20.2 90.056 20.508C90.112 20.816 90.294 20.998 90.602 21.054C90.826 21.082 90.994 21.096 91.106 21.096C91.218 21.068 91.33 20.956 91.442 20.76C91.526 20.564 91.526 20.424 91.442 20.34C91.386 20.228 91.274 20.088 91.106 19.92ZM94.214 21.39C93.85 21.138 93.5 21.138 93.164 21.39C92.968 21.53 92.856 21.67 92.828 21.81C92.828 21.922 92.87 22.09 92.954 22.314C93.038 22.594 93.108 22.818 93.164 22.986C93.22 23.126 93.388 23.196 93.668 23.196C93.976 23.196 94.2 23.154 94.34 23.07C94.508 22.986 94.648 22.79 94.76 22.482C94.844 22.202 94.83 22.006 94.718 21.894C94.606 21.754 94.438 21.586 94.214 21.39ZM88.418 21.474C88.194 21.39 88.012 21.376 87.872 21.432C87.76 21.46 87.634 21.572 87.494 21.768C87.382 21.964 87.354 22.118 87.41 22.23C87.466 22.314 87.564 22.44 87.704 22.608C87.872 22.804 87.998 22.972 88.082 23.112C88.166 23.224 88.32 23.224 88.544 23.112C88.824 23.028 88.992 22.93 89.048 22.818C89.132 22.678 89.174 22.468 89.174 22.188C89.146 21.908 89.076 21.74 88.964 21.684C88.852 21.6 88.67 21.53 88.418 21.474ZM91.274 23.616L90.98 23.49L90.77 23.826L91.022 24.162L91.442 23.952L91.274 23.616ZM89.846 24.414L89.51 24.162L89.132 24.414L89.258 24.918L89.678 24.792L89.846 24.414ZM88.082 25.296C88.082 25.044 88.054 24.862 87.998 24.75C87.942 24.61 87.788 24.498 87.536 24.414C87.34 24.358 87.214 24.4 87.158 24.54C87.102 24.652 87.004 24.806 86.864 25.002C86.724 25.198 86.724 25.394 86.864 25.59C87.004 25.758 87.102 25.884 87.158 25.968C87.214 26.052 87.34 26.066 87.536 26.01C87.76 25.926 87.9 25.842 87.956 25.758C88.04 25.674 88.082 25.52 88.082 25.296ZM93.794 24.54C93.626 24.512 93.5 24.61 93.416 24.834C93.332 25.03 93.346 25.184 93.458 25.296C93.57 25.408 93.724 25.408 93.92 25.296C94.032 25.24 94.116 25.198 94.172 25.17C94.256 25.114 94.284 25.03 94.256 24.918C94.2 24.694 94.046 24.568 93.794 24.54ZM90.98 25.926L90.728 25.59L90.308 25.842L90.434 26.304L90.854 26.262L90.98 25.926ZM91.316 27.942C91.288 27.746 91.246 27.606 91.19 27.522C91.162 27.41 91.05 27.326 90.854 27.27C90.63 27.242 90.462 27.242 90.35 27.27C90.238 27.298 90.126 27.41 90.014 27.606C89.902 27.802 89.902 27.942 90.014 28.026C90.126 28.082 90.252 28.18 90.392 28.32C90.476 28.432 90.546 28.516 90.602 28.572C90.686 28.628 90.798 28.628 90.938 28.572C91.218 28.432 91.344 28.222 91.316 27.942ZM94.886 27.69C94.802 27.494 94.69 27.41 94.55 27.438C94.41 27.466 94.228 27.494 94.004 27.522C93.808 27.55 93.654 27.578 93.542 27.606C93.458 27.634 93.388 27.746 93.332 27.942C93.304 28.194 93.29 28.39 93.29 28.53C93.29 28.67 93.402 28.796 93.626 28.908C93.822 29.02 93.962 29.02 94.046 28.908C94.13 28.768 94.256 28.614 94.424 28.446C94.592 28.278 94.732 28.166 94.844 28.11C94.956 28.026 94.97 27.886 94.886 27.69ZM99.4289 30C99.1769 30 98.9529 29.916 98.7569 29.748C98.5889 29.552 98.5049 29.328 98.5049 29.076C98.5049 28.964 98.5189 28.866 98.5469 28.782L107.913 1.986C107.997 1.678 108.193 1.37 108.501 1.062C108.809 0.753999 109.243 0.599998 109.803 0.599998H118.917C119.477 0.599998 119.911 0.753999 120.219 1.062C120.527 1.37 120.723 1.678 120.807 1.986L130.173 28.782C130.201 28.866 130.215 28.964 130.215 29.076C130.215 29.328 130.117 29.552 129.921 29.748C129.753 29.916 129.543 30 129.291 30H121.521C120.989 30 120.597 29.888 120.345 29.664C120.121 29.412 119.967 29.174 119.883 28.95L118.875 26.178H109.845L108.837 28.95C108.753 29.174 108.599 29.412 108.375 29.664C108.151 29.888 107.759 30 107.199 30H99.4289ZM112.155 3.288C111.987 3.26 111.847 3.26 111.735 3.288C111.651 3.288 111.567 3.358 111.483 3.498C111.371 3.806 111.427 4.072 111.651 4.296C111.819 4.436 111.959 4.534 112.071 4.59C112.183 4.646 112.337 4.618 112.533 4.506C112.729 4.422 112.827 4.324 112.827 4.212C112.827 4.072 112.813 3.89 112.785 3.666C112.757 3.498 112.687 3.4 112.575 3.372C112.491 3.344 112.351 3.316 112.155 3.288ZM116.607 4.422C116.467 4.114 116.313 3.932 116.145 3.876C115.977 3.82 115.739 3.806 115.431 3.834C115.067 3.862 114.773 3.904 114.549 3.96C114.353 3.988 114.213 4.184 114.129 4.548C114.017 4.968 114.003 5.29 114.087 5.514C114.171 5.71 114.395 5.92 114.759 6.144C115.123 6.368 115.417 6.48 115.641 6.48C115.893 6.452 116.187 6.298 116.523 6.018C116.803 5.766 116.915 5.528 116.859 5.304C116.831 5.08 116.747 4.786 116.607 4.422ZM109.173 4.716C109.005 4.576 108.851 4.534 108.711 4.59C108.599 4.618 108.459 4.702 108.291 4.842C108.039 5.01 107.969 5.248 108.081 5.556C108.137 5.78 108.193 5.948 108.249 6.06C108.305 6.172 108.445 6.228 108.669 6.228C108.921 6.228 109.103 6.2 109.215 6.144C109.327 6.06 109.425 5.906 109.509 5.682C109.593 5.43 109.607 5.248 109.551 5.136C109.495 4.996 109.369 4.856 109.173 4.716ZM113.331 6.774C113.191 6.774 113.107 6.816 113.079 6.9C113.079 6.984 113.051 7.096 112.995 7.236C112.939 7.348 112.897 7.446 112.869 7.53C112.841 7.586 112.869 7.656 112.953 7.74C113.121 7.908 113.317 7.922 113.541 7.782C113.765 7.67 113.849 7.502 113.793 7.278C113.709 6.97 113.555 6.802 113.331 6.774ZM120.051 8.496C119.967 8.3 119.869 8.188 119.757 8.16C119.673 8.104 119.519 8.09 119.295 8.118C119.071 8.146 118.889 8.174 118.749 8.202C118.609 8.23 118.511 8.356 118.455 8.58C118.427 8.832 118.469 9 118.581 9.084C118.693 9.168 118.847 9.266 119.043 9.378C119.239 9.49 119.393 9.574 119.505 9.63C119.645 9.658 119.799 9.602 119.967 9.462C120.135 9.294 120.219 9.154 120.219 9.042C120.219 8.902 120.163 8.72 120.051 8.496ZM108.123 8.958C107.927 8.79 107.759 8.706 107.619 8.706C107.479 8.706 107.297 8.776 107.073 8.916C106.821 9.056 106.639 9.196 106.527 9.336C106.415 9.448 106.401 9.644 106.485 9.924C106.541 10.232 106.625 10.442 106.737 10.554C106.877 10.666 107.115 10.736 107.451 10.764C107.731 10.792 107.927 10.75 108.039 10.638C108.151 10.498 108.263 10.302 108.375 10.05C108.487 9.798 108.529 9.602 108.501 9.462C108.473 9.322 108.347 9.154 108.123 8.958ZM111.987 17.988H116.733L114.339 10.176L111.987 17.988ZM120.513 11.814C120.289 11.73 120.107 11.688 119.967 11.688C119.827 11.688 119.687 11.786 119.547 11.982C119.407 12.178 119.351 12.346 119.379 12.486C119.407 12.598 119.491 12.752 119.631 12.948C119.799 13.2 119.925 13.396 120.009 13.536C120.121 13.648 120.317 13.662 120.597 13.578C120.877 13.494 121.031 13.382 121.059 13.242C121.115 13.074 121.143 12.836 121.143 12.528C121.143 12.304 121.087 12.15 120.975 12.066C120.891 11.982 120.737 11.898 120.513 11.814ZM109.761 13.788C109.593 13.508 109.425 13.34 109.257 13.284C109.089 13.228 108.851 13.242 108.543 13.326C108.235 13.382 108.039 13.48 107.955 13.62C107.899 13.76 107.857 13.984 107.829 14.292C107.801 14.544 107.843 14.712 107.955 14.796C108.067 14.88 108.235 14.964 108.459 15.048C108.767 15.188 109.005 15.328 109.173 15.468C109.341 15.608 109.551 15.552 109.803 15.3C110.055 15.02 110.153 14.782 110.097 14.586C110.069 14.39 109.957 14.124 109.761 13.788ZM119.757 14.88C119.561 14.796 119.421 14.81 119.337 14.922C119.253 15.034 119.141 15.16 119.001 15.3C118.861 15.44 118.763 15.552 118.707 15.636C118.679 15.692 118.707 15.804 118.791 15.972C118.931 16.252 119.141 16.378 119.421 16.35C119.617 16.322 119.729 16.266 119.757 16.182C119.813 16.098 119.855 15.958 119.883 15.762C119.911 15.538 119.939 15.37 119.967 15.258C120.023 15.118 119.953 14.992 119.757 14.88ZM122.655 15.678L122.235 15.846L122.025 16.182L122.403 16.434L122.697 16.14L122.655 15.678ZM122.361 18.072C122.277 17.848 122.207 17.666 122.151 17.526C122.123 17.386 121.997 17.302 121.773 17.274C121.521 17.246 121.367 17.302 121.311 17.442C121.255 17.582 121.185 17.764 121.101 17.988C120.989 18.268 121.045 18.506 121.269 18.702C121.493 18.898 121.661 19.08 121.773 19.248C121.885 19.388 122.067 19.388 122.319 19.248C122.571 19.08 122.655 18.912 122.571 18.744C122.487 18.576 122.417 18.352 122.361 18.072ZM119.673 17.316L119.295 17.61L119.337 17.988L119.757 18.114L119.883 17.736L119.673 17.316ZM124.293 18.534C124.069 18.366 123.887 18.352 123.747 18.492C123.607 18.576 123.495 18.66 123.411 18.744C123.355 18.828 123.355 18.94 123.411 19.08C123.467 19.248 123.537 19.332 123.621 19.332C123.733 19.332 123.873 19.332 124.041 19.332C124.237 19.332 124.391 19.332 124.503 19.332C124.615 19.332 124.685 19.248 124.713 19.08C124.769 18.912 124.741 18.8 124.629 18.744C124.545 18.688 124.433 18.618 124.293 18.534ZM110.433 20.046C110.349 19.794 110.265 19.626 110.181 19.542C110.097 19.458 109.929 19.416 109.677 19.416C109.341 19.444 109.075 19.472 108.879 19.5C108.711 19.5 108.585 19.654 108.501 19.962C108.389 20.326 108.361 20.606 108.417 20.802C108.473 20.998 108.669 21.208 109.005 21.432C109.285 21.6 109.495 21.614 109.635 21.474C109.775 21.306 109.971 21.124 110.223 20.928C110.391 20.788 110.489 20.662 110.517 20.55C110.545 20.41 110.517 20.242 110.433 20.046ZM116.649 19.962C116.397 19.822 116.173 19.836 115.977 20.004C115.809 20.172 115.781 20.382 115.893 20.634C115.949 20.746 116.005 20.802 116.061 20.802C116.145 20.802 116.257 20.802 116.397 20.802C116.649 20.774 116.789 20.676 116.817 20.508C116.873 20.228 116.817 20.046 116.649 19.962ZM119.547 20.34C119.407 20.256 119.295 20.186 119.211 20.13C119.155 20.046 119.071 20.046 118.959 20.13C118.819 20.242 118.763 20.34 118.791 20.424C118.819 20.508 118.861 20.634 118.917 20.802C119.001 21.054 119.141 21.18 119.337 21.18C119.477 21.18 119.561 21.152 119.589 21.096C119.645 21.012 119.701 20.9 119.757 20.76C119.785 20.62 119.715 20.48 119.547 20.34ZM113.331 20.97L113.121 20.592L112.617 20.76L112.701 21.348L113.247 21.516L113.331 20.97ZM106.779 21.474C106.583 21.278 106.429 21.124 106.317 21.012C106.233 20.872 106.065 20.858 105.813 20.97C105.561 21.11 105.407 21.25 105.351 21.39C105.295 21.53 105.281 21.754 105.309 22.062C105.365 22.37 105.421 22.594 105.477 22.734C105.561 22.874 105.757 22.986 106.065 23.07C106.401 23.126 106.667 23.14 106.863 23.112C107.059 23.056 107.241 22.874 107.409 22.566C107.577 22.286 107.563 22.09 107.367 21.978C107.171 21.866 106.975 21.698 106.779 21.474ZM122.361 22.062C122.277 21.866 122.207 21.726 122.151 21.642C122.095 21.53 121.969 21.474 121.773 21.474C121.549 21.502 121.409 21.572 121.353 21.684C121.297 21.768 121.241 21.908 121.185 22.104C121.157 22.272 121.171 22.398 121.227 22.482C121.283 22.566 121.381 22.65 121.521 22.734C121.689 22.846 121.815 22.93 121.899 22.986C122.011 23.014 122.151 22.972 122.319 22.86C122.459 22.72 122.515 22.594 122.487 22.482C122.487 22.37 122.445 22.23 122.361 22.062ZM116.145 22.23L115.935 21.852L115.641 22.146V22.44L116.019 22.608L116.145 22.23ZM109.215 22.986C109.019 22.818 108.851 22.762 108.711 22.818C108.599 22.846 108.431 22.93 108.207 23.07C108.039 23.182 107.941 23.294 107.913 23.406C107.913 23.518 107.941 23.672 107.997 23.868C108.053 24.148 108.249 24.302 108.585 24.33C108.809 24.33 108.977 24.33 109.089 24.33C109.201 24.302 109.299 24.19 109.383 23.994C109.467 23.742 109.509 23.56 109.509 23.448C109.509 23.308 109.411 23.154 109.215 22.986ZM124.797 24.456C124.517 24.372 124.293 24.344 124.125 24.372C123.985 24.4 123.845 24.54 123.705 24.792C123.509 25.1 123.355 25.352 123.243 25.548C123.131 25.716 123.201 25.94 123.453 26.22C123.677 26.528 123.887 26.654 124.083 26.598C124.307 26.542 124.587 26.444 124.923 26.304C125.287 26.164 125.567 26.052 125.763 25.968C125.959 25.884 126.043 25.646 126.015 25.254C125.987 24.89 125.861 24.694 125.637 24.666C125.413 24.61 125.133 24.54 124.797 24.456ZM106.275 26.052C106.107 25.66 105.897 25.478 105.645 25.506C105.421 25.506 105.099 25.52 104.679 25.548C104.231 25.576 103.867 25.604 103.587 25.632C103.335 25.632 103.153 25.856 103.041 26.304C102.929 26.752 102.957 27.088 103.125 27.312C103.293 27.508 103.573 27.732 103.965 27.984C104.441 28.264 104.805 28.46 105.057 28.572C105.337 28.684 105.673 28.558 106.065 28.194C106.485 27.858 106.667 27.55 106.611 27.27C106.583 26.962 106.471 26.556 106.275 26.052ZM133.654 30C133.346 30 133.08 29.888 132.856 29.664C132.632 29.44 132.52 29.174 132.52 28.866V1.734C132.52 1.426 132.632 1.16 132.856 0.935999C133.08 0.711998 133.346 0.599998 133.654 0.599998H147.598C151.602 0.599998 154.542 1.342 156.418 2.826C158.294 4.282 159.232 6.48 159.232 9.42C159.232 10.316 159.036 11.128 158.644 11.856C158.28 12.556 157.832 13.144 157.3 13.62C156.796 14.096 156.32 14.446 155.872 14.67C156.936 15.118 157.86 15.902 158.644 17.022C159.456 18.114 159.862 19.36 159.862 20.76C159.862 23.896 158.84 26.22 156.796 27.732C154.752 29.244 151.826 30 148.018 30H133.654ZM143.482 1.944L143.02 2.112L143.146 2.406L143.44 2.28L143.482 1.944ZM139.324 2.448C139.156 2.252 139.002 2.168 138.862 2.196C138.722 2.224 138.54 2.28 138.316 2.364C137.98 2.532 137.826 2.798 137.854 3.162C137.882 3.526 138.078 3.75 138.442 3.834C138.722 3.89 138.946 3.946 139.114 4.002C139.282 4.03 139.436 3.918 139.576 3.666C139.744 3.386 139.8 3.176 139.744 3.036C139.688 2.868 139.548 2.672 139.324 2.448ZM151.924 2.364C151.756 2.224 151.616 2.196 151.504 2.28C151.392 2.364 151.252 2.462 151.084 2.574C150.944 2.686 150.846 2.784 150.79 2.868C150.762 2.952 150.776 3.078 150.832 3.246C150.888 3.442 150.944 3.61 151 3.75C151.056 3.862 151.196 3.918 151.42 3.918C151.672 3.918 151.84 3.876 151.924 3.792C152.036 3.708 152.134 3.54 152.218 3.288C152.358 2.896 152.26 2.588 151.924 2.364ZM149.572 3.372C149.572 3.092 149.572 2.868 149.572 2.7C149.6 2.532 149.488 2.406 149.236 2.322C148.956 2.238 148.746 2.238 148.606 2.322C148.466 2.406 148.312 2.574 148.144 2.826C148.004 3.022 147.962 3.19 148.018 3.33C148.074 3.442 148.172 3.596 148.312 3.792C148.452 3.988 148.564 4.128 148.648 4.212C148.76 4.296 148.928 4.296 149.152 4.212C149.376 4.128 149.502 4.03 149.53 3.918C149.558 3.778 149.572 3.596 149.572 3.372ZM154.066 3.162C154.01 2.994 153.968 2.868 153.94 2.784C153.94 2.672 153.856 2.616 153.688 2.616C153.492 2.644 153.366 2.7 153.31 2.784C153.254 2.84 153.198 2.966 153.142 3.162C153.086 3.414 153.184 3.624 153.436 3.792C153.688 3.96 153.926 3.946 154.15 3.75C154.262 3.666 154.29 3.582 154.234 3.498C154.178 3.414 154.122 3.302 154.066 3.162ZM145.12 2.994L144.7 2.826L144.406 3.204L144.742 3.54L145.078 3.372L145.12 2.994ZM146.464 3.918C146.24 3.89 146.072 4.016 145.96 4.296C145.848 4.548 145.89 4.744 146.086 4.884C146.198 4.996 146.296 5.066 146.38 5.094C146.492 5.122 146.618 5.094 146.758 5.01C147.01 4.842 147.108 4.604 147.052 4.296C146.996 4.128 146.926 4.03 146.842 4.002C146.758 3.946 146.632 3.918 146.464 3.918ZM142.054 5.094C141.858 4.842 141.69 4.66 141.55 4.548C141.41 4.436 141.186 4.436 140.878 4.548C140.514 4.688 140.248 4.828 140.08 4.968C139.912 5.08 139.828 5.332 139.828 5.724C139.856 6.116 139.968 6.354 140.164 6.438C140.36 6.522 140.64 6.62 141.004 6.732C141.284 6.816 141.48 6.802 141.592 6.69C141.704 6.578 141.844 6.396 142.012 6.144C142.152 5.92 142.236 5.738 142.264 5.598C142.292 5.458 142.222 5.29 142.054 5.094ZM153.058 4.968C152.834 4.884 152.652 4.814 152.512 4.758C152.4 4.674 152.274 4.73 152.134 4.926C151.994 5.094 151.966 5.234 152.05 5.346C152.162 5.458 152.288 5.612 152.428 5.808C152.54 6.004 152.624 6.158 152.68 6.27C152.764 6.382 152.918 6.41 153.142 6.354C153.422 6.27 153.59 6.172 153.646 6.06C153.73 5.948 153.772 5.752 153.772 5.472C153.772 5.248 153.702 5.122 153.562 5.094C153.45 5.066 153.282 5.024 153.058 4.968ZM155.788 6.438C155.48 6.382 155.242 6.508 155.074 6.816C154.962 7.04 154.878 7.222 154.822 7.362C154.766 7.474 154.822 7.614 154.99 7.782C155.158 7.978 155.312 8.09 155.452 8.118C155.592 8.118 155.788 8.062 156.04 7.95C156.236 7.866 156.32 7.754 156.292 7.614C156.264 7.474 156.236 7.292 156.208 7.068C156.18 6.9 156.152 6.774 156.124 6.69C156.096 6.578 155.984 6.494 155.788 6.438ZM149.698 6.774H149.236L149.278 7.32L149.698 7.404L150.16 7.068L149.698 6.774ZM143.02 11.646H146.548C147.164 11.646 147.598 11.45 147.85 11.058C148.13 10.638 148.27 10.204 148.27 9.756C148.27 9.308 148.13 8.874 147.85 8.454C147.598 8.034 147.164 7.824 146.548 7.824H143.02V11.646ZM139.45 9.42C139.254 8.888 139.044 8.552 138.82 8.412C138.596 8.244 138.204 8.16 137.644 8.16C137.084 8.16 136.678 8.244 136.426 8.412C136.174 8.552 135.964 8.888 135.796 9.42C135.656 9.924 135.67 10.288 135.838 10.512C136.034 10.736 136.356 10.988 136.804 11.268C137.168 11.52 137.462 11.646 137.686 11.646C137.91 11.618 138.204 11.464 138.568 11.184C138.96 10.876 139.24 10.624 139.408 10.428C139.576 10.204 139.59 9.868 139.45 9.42ZM153.352 11.226C153.24 10.918 153.016 10.764 152.68 10.764C152.4 10.764 152.218 10.932 152.134 11.268C152.05 11.52 151.98 11.716 151.924 11.856C151.868 11.996 151.952 12.136 152.176 12.276C152.4 12.444 152.582 12.528 152.722 12.528C152.89 12.5 153.1 12.402 153.352 12.234C153.548 12.066 153.618 11.912 153.562 11.772C153.506 11.632 153.436 11.45 153.352 11.226ZM150.454 11.562C150.314 11.45 150.188 11.422 150.076 11.478C149.964 11.506 149.824 11.576 149.656 11.688C149.404 11.856 149.306 12.066 149.362 12.318C149.418 12.542 149.46 12.71 149.488 12.822C149.544 12.906 149.684 12.962 149.908 12.99C150.132 13.018 150.286 12.99 150.37 12.906C150.454 12.822 150.538 12.668 150.622 12.444C150.706 12.248 150.734 12.094 150.706 11.982C150.706 11.87 150.622 11.73 150.454 11.562ZM138.778 13.368L138.316 13.116L137.896 13.2V13.704L138.442 13.872L138.778 13.368ZM147.808 13.872C147.78 13.564 147.598 13.368 147.262 13.284C147.038 13.256 146.856 13.228 146.716 13.2C146.604 13.172 146.492 13.256 146.38 13.452C146.268 13.648 146.254 13.802 146.338 13.914C146.422 13.998 146.534 14.124 146.674 14.292C146.814 14.46 146.926 14.572 147.01 14.628C147.094 14.684 147.234 14.684 147.43 14.628C147.626 14.544 147.738 14.446 147.766 14.334C147.822 14.222 147.836 14.068 147.808 13.872ZM153.352 13.956L153.058 13.578L152.596 13.746L152.764 14.208L153.142 14.334L153.352 13.956ZM135.334 15.216C135.25 14.964 135.194 14.754 135.166 14.586C135.166 14.418 135.026 14.334 134.746 14.334C134.466 14.334 134.312 14.418 134.284 14.586C134.284 14.754 134.242 14.964 134.158 15.216C134.074 15.496 133.976 15.72 133.864 15.888C133.78 16.028 133.85 16.182 134.074 16.35C134.326 16.518 134.522 16.56 134.662 16.476C134.802 16.364 134.984 16.224 135.208 16.056C135.376 15.944 135.46 15.832 135.46 15.72C135.46 15.608 135.418 15.44 135.334 15.216ZM142.474 15.762C142.278 15.538 142.11 15.37 141.97 15.258C141.858 15.146 141.648 15.146 141.34 15.258C141.06 15.342 140.92 15.482 140.92 15.678C140.948 15.846 140.962 16.084 140.962 16.392C140.962 16.728 140.948 17.008 140.92 17.232C140.892 17.428 141.046 17.582 141.382 17.694C141.69 17.778 141.872 17.708 141.928 17.484C142.012 17.26 142.152 17.022 142.348 16.77C142.488 16.546 142.586 16.378 142.642 16.266C142.698 16.126 142.642 15.958 142.474 15.762ZM138.442 16.266L137.98 16.644L138.148 17.106L138.694 17.274V16.728L138.442 16.266ZM148.9 17.064L148.312 17.148L148.438 17.736L148.9 17.862L149.11 17.484L148.9 17.064ZM151.882 18.03C151.826 17.75 151.742 17.568 151.63 17.484C151.518 17.4 151.336 17.344 151.084 17.316C150.832 17.288 150.678 17.344 150.622 17.484C150.566 17.624 150.496 17.792 150.412 17.988C150.3 18.268 150.37 18.506 150.622 18.702C150.762 18.814 150.874 18.898 150.958 18.954C151.07 19.01 151.224 18.982 151.42 18.87C151.616 18.758 151.756 18.646 151.84 18.534C151.924 18.422 151.938 18.254 151.882 18.03ZM137.392 17.778L136.93 17.862L137.056 18.324H137.476L137.602 18.03L137.392 17.778ZM155.032 18.114L154.612 18.156L154.654 18.534L154.99 18.786L155.326 18.45L155.032 18.114ZM143.02 22.776H146.926C147.626 22.776 148.116 22.552 148.396 22.104C148.704 21.628 148.858 21.166 148.858 20.718C148.858 20.214 148.69 19.752 148.354 19.332C148.046 18.884 147.57 18.66 146.926 18.66H143.02V22.776ZM152.596 20.466C152.372 20.41 152.204 20.41 152.092 20.466C152.008 20.522 151.91 20.648 151.798 20.844C151.63 21.124 151.658 21.39 151.882 21.642C152.106 21.922 152.358 22.006 152.638 21.894C152.946 21.782 153.086 21.544 153.058 21.18C153.03 20.956 152.988 20.788 152.932 20.676C152.904 20.564 152.792 20.494 152.596 20.466ZM139.744 21.39C139.492 21.306 139.282 21.292 139.114 21.348C138.974 21.376 138.834 21.502 138.694 21.726C138.526 21.978 138.442 22.188 138.442 22.356C138.442 22.496 138.526 22.678 138.694 22.902C138.862 23.098 139.016 23.196 139.156 23.196C139.324 23.196 139.534 23.154 139.786 23.07C140.01 22.986 140.164 22.888 140.248 22.776C140.332 22.664 140.374 22.482 140.374 22.23C140.374 21.978 140.332 21.796 140.248 21.684C140.164 21.544 139.996 21.446 139.744 21.39ZM154.738 21.852L154.444 21.81L154.36 22.062L154.528 22.356L154.822 22.146L154.738 21.852ZM156.544 21.81L155.998 21.936L155.956 22.524H156.46L156.88 22.23L156.544 21.81ZM136.468 22.104C135.992 21.992 135.614 21.922 135.334 21.894C135.054 21.866 134.802 22.062 134.578 22.482C134.298 22.93 134.186 23.294 134.242 23.574C134.298 23.854 134.508 24.19 134.872 24.582C135.208 24.946 135.502 25.142 135.754 25.17C136.034 25.198 136.398 25.114 136.846 24.918C137.322 24.694 137.658 24.484 137.854 24.288C138.05 24.092 138.12 23.728 138.064 23.196C138.008 22.72 137.84 22.44 137.56 22.356C137.308 22.272 136.944 22.188 136.468 22.104ZM154.99 24.036L154.612 23.868L154.36 24.078L154.486 24.372L154.864 24.456L154.99 24.036ZM147.724 25.338C147.332 24.918 147.01 24.61 146.758 24.414C146.534 24.19 146.17 24.204 145.666 24.456C145.134 24.736 144.826 25.03 144.742 25.338C144.658 25.646 144.672 26.094 144.784 26.682C144.868 27.27 144.994 27.704 145.162 27.984C145.358 28.236 145.75 28.404 146.338 28.488C147.01 28.6 147.528 28.614 147.892 28.53C148.256 28.446 148.592 28.11 148.9 27.522C149.18 26.962 149.166 26.57 148.858 26.346C148.55 26.094 148.172 25.758 147.724 25.338ZM156.796 25.548L156.544 25.338L156.292 25.674L156.544 25.926H156.922L156.796 25.548ZM153.94 25.59C153.604 25.394 153.296 25.408 153.016 25.632C152.848 25.8 152.722 25.94 152.638 26.052C152.582 26.164 152.61 26.332 152.722 26.556C152.806 26.78 152.904 26.906 153.016 26.934C153.156 26.934 153.338 26.92 153.562 26.892C153.786 26.864 153.954 26.836 154.066 26.808C154.178 26.752 154.248 26.626 154.276 26.43C154.332 26.206 154.332 26.038 154.276 25.926C154.22 25.814 154.108 25.702 153.94 25.59ZM140.584 25.422L140.038 25.59L139.912 26.136L140.458 26.22L140.794 25.926L140.584 25.422ZM137.35 26.136C137.126 25.94 136.916 25.912 136.72 26.052C136.468 26.22 136.37 26.43 136.426 26.682C136.51 26.962 136.692 27.116 136.972 27.144C137.224 27.172 137.406 27.046 137.518 26.766C137.63 26.514 137.574 26.304 137.35 26.136ZM143.188 26.724L142.81 26.934L142.852 27.228L143.104 27.48L143.44 27.144L143.188 26.724ZM140.122 27.27L139.744 27.396L139.66 27.732L139.996 28.068L140.206 27.648L140.122 27.27ZM176.636 30.42C173.892 30.42 171.484 30 169.412 29.16C167.368 28.32 165.744 27.06 164.54 25.38C163.364 23.672 162.72 21.572 162.608 19.08C162.524 16.672 162.524 14.208 162.608 11.688C162.72 9.224 163.364 7.138 164.54 5.43C165.716 3.722 167.34 2.42 169.412 1.524C171.484 0.627998 173.892 0.179998 176.636 0.179998C179.38 0.179998 181.788 0.627998 183.86 1.524C185.932 2.42 187.556 3.722 188.732 5.43C189.936 7.138 190.58 9.224 190.664 11.688C190.748 14.208 190.748 16.672 190.664 19.08C190.552 21.572 189.894 23.672 188.69 25.38C187.514 27.06 185.89 28.32 183.818 29.16C181.774 30 179.38 30.42 176.636 30.42ZM178.736 2.952C178.148 2.7 177.686 2.476 177.35 2.28C177.014 2.084 176.65 2.224 176.258 2.7C175.838 3.176 175.74 3.568 175.964 3.876C176.216 4.184 176.496 4.604 176.804 5.136C177.084 5.584 177.322 5.906 177.518 6.102C177.714 6.27 178.064 6.298 178.568 6.186C179.072 6.074 179.352 5.892 179.408 5.64C179.492 5.36 179.562 4.968 179.618 4.464C179.646 4.016 179.604 3.694 179.492 3.498C179.38 3.302 179.128 3.12 178.736 2.952ZM183.734 3.204C183.482 3.064 183.272 3.064 183.104 3.204C182.964 3.316 182.852 3.414 182.768 3.498C182.712 3.582 182.712 3.708 182.768 3.876C182.852 4.072 182.936 4.184 183.02 4.212C183.132 4.212 183.286 4.212 183.482 4.212C183.622 4.212 183.706 4.17 183.734 4.086C183.762 4.002 183.804 3.89 183.86 3.75C183.916 3.498 183.874 3.316 183.734 3.204ZM172.73 4.59C172.674 4.198 172.52 3.988 172.268 3.96C172.016 3.932 171.694 3.89 171.302 3.834C170.91 3.778 170.588 3.736 170.336 3.708C170.112 3.68 169.916 3.848 169.748 4.212C169.552 4.576 169.538 4.842 169.706 5.01C169.902 5.15 170.154 5.36 170.462 5.64C170.714 5.892 170.924 6.06 171.092 6.144C171.26 6.228 171.498 6.186 171.806 6.018C172.17 5.822 172.436 5.64 172.604 5.472C172.772 5.304 172.814 5.01 172.73 4.59ZM183.398 5.262L182.978 5.094L182.81 5.472L182.936 5.808L183.356 5.724L183.398 5.262ZM185.918 5.892C185.666 5.808 185.47 5.738 185.33 5.682C185.218 5.626 185.078 5.696 184.91 5.892C184.742 6.088 184.672 6.256 184.7 6.396C184.728 6.508 184.812 6.676 184.952 6.9C185.036 7.096 185.134 7.208 185.246 7.236C185.386 7.236 185.554 7.222 185.75 7.194C185.946 7.138 186.058 7.068 186.086 6.984C186.114 6.9 186.142 6.76 186.17 6.564C186.198 6.396 186.198 6.27 186.17 6.186C186.142 6.074 186.058 5.976 185.918 5.892ZM168.656 6.564C168.404 6.564 168.222 6.578 168.11 6.606C167.998 6.634 167.9 6.76 167.816 6.984C167.732 7.208 167.718 7.376 167.774 7.488C167.858 7.572 167.998 7.684 168.194 7.824C168.418 8.02 168.586 8.188 168.698 8.328C168.838 8.44 169.034 8.412 169.286 8.244C169.538 8.076 169.65 7.908 169.622 7.74C169.594 7.572 169.538 7.334 169.454 7.026C169.398 6.802 169.3 6.676 169.16 6.648C169.048 6.592 168.88 6.564 168.656 6.564ZM182.684 7.11L182.306 7.194L182.348 7.572L182.684 7.698L182.936 7.404L182.684 7.11ZM176.636 22.23C177.56 22.23 178.302 21.964 178.862 21.432C179.422 20.872 179.716 20.004 179.744 18.828C179.828 16.42 179.828 14.068 179.744 11.772C179.716 10.596 179.408 9.742 178.82 9.21C178.26 8.65 177.532 8.37 176.636 8.37C175.74 8.37 175.012 8.65 174.452 9.21C173.892 9.742 173.584 10.596 173.528 11.772C173.444 14.068 173.444 16.42 173.528 18.828C173.584 20.004 173.878 20.872 174.41 21.432C174.97 21.964 175.712 22.23 176.636 22.23ZM184.07 9.882C183.734 9.77 183.482 9.784 183.314 9.924C183.174 10.036 182.992 10.232 182.768 10.512C182.544 10.792 182.39 11.016 182.306 11.184C182.222 11.352 182.278 11.59 182.474 11.898C182.67 12.206 182.866 12.388 183.062 12.444C183.258 12.472 183.538 12.444 183.902 12.36C184.294 12.248 184.588 12.15 184.784 12.066C185.008 11.954 185.134 11.688 185.162 11.268C185.19 10.82 185.12 10.526 184.952 10.386C184.784 10.218 184.49 10.05 184.07 9.882ZM186.044 9.798L185.708 9.966L185.75 10.344L186.128 10.47L186.212 10.092L186.044 9.798ZM170.378 10.722C170.182 10.694 170.028 10.652 169.916 10.596C169.804 10.512 169.692 10.554 169.58 10.722C169.468 10.89 169.44 11.03 169.496 11.142C169.552 11.226 169.65 11.352 169.79 11.52C169.93 11.66 170.042 11.772 170.126 11.856C170.21 11.912 170.336 11.912 170.504 11.856C170.7 11.772 170.784 11.674 170.756 11.562C170.756 11.45 170.756 11.296 170.756 11.1C170.756 10.932 170.63 10.806 170.378 10.722ZM167.48 11.352C167.424 11.156 167.284 11.058 167.06 11.058C166.92 11.058 166.808 11.072 166.724 11.1C166.64 11.1 166.584 11.17 166.556 11.31C166.472 11.562 166.528 11.772 166.724 11.94C166.92 12.052 167.13 12.038 167.354 11.898C167.522 11.758 167.564 11.576 167.48 11.352ZM171.134 13.788C171.022 13.452 170.868 13.27 170.672 13.242C170.504 13.214 170.238 13.2 169.874 13.2C169.622 13.2 169.454 13.256 169.37 13.368C169.314 13.48 169.244 13.662 169.16 13.914C169.076 14.166 169.006 14.376 168.95 14.544C168.922 14.684 169.02 14.838 169.244 15.006C169.468 15.174 169.65 15.23 169.79 15.174C169.93 15.118 170.112 15.006 170.336 14.838C170.616 14.67 170.84 14.53 171.008 14.418C171.176 14.306 171.218 14.096 171.134 13.788ZM182.768 13.326C182.404 13.186 182.124 13.256 181.928 13.536C181.704 13.816 181.69 14.11 181.886 14.418C181.998 14.586 182.11 14.67 182.222 14.67C182.334 14.67 182.488 14.642 182.684 14.586C182.852 14.558 182.95 14.502 182.978 14.418C183.006 14.306 183.02 14.166 183.02 13.998C183.02 13.83 183.02 13.69 183.02 13.578C183.02 13.466 182.936 13.382 182.768 13.326ZM187.43 13.494C187.206 13.438 187.052 13.466 186.968 13.578C186.912 13.662 186.828 13.802 186.716 13.998C186.576 14.222 186.59 14.446 186.758 14.67C186.926 14.838 187.052 14.992 187.136 15.132C187.22 15.244 187.36 15.244 187.556 15.132C187.808 15.048 187.962 14.95 188.018 14.838C188.074 14.698 188.088 14.502 188.06 14.25C188.032 13.83 187.822 13.578 187.43 13.494ZM186.506 16.308C186.31 16.28 186.17 16.294 186.086 16.35C186.03 16.406 185.974 16.518 185.918 16.686C185.834 16.826 185.778 16.952 185.75 17.064C185.75 17.148 185.806 17.246 185.918 17.358C186.03 17.498 186.128 17.554 186.212 17.526C186.324 17.47 186.45 17.414 186.59 17.358C186.842 17.218 186.954 17.05 186.926 16.854C186.898 16.686 186.856 16.56 186.8 16.476C186.772 16.392 186.674 16.336 186.506 16.308ZM182.81 16.812C182.418 16.644 182.096 16.714 181.844 17.022C181.564 17.33 181.536 17.652 181.76 17.988C181.872 18.212 181.984 18.338 182.096 18.366C182.236 18.394 182.418 18.394 182.642 18.366C182.866 18.31 183.006 18.226 183.062 18.114C183.118 18.002 183.16 17.834 183.188 17.61C183.216 17.386 183.202 17.218 183.146 17.106C183.118 16.994 183.006 16.896 182.81 16.812ZM166.892 17.778C166.724 17.526 166.556 17.442 166.388 17.526C166.22 17.61 165.982 17.694 165.674 17.778C165.422 17.862 165.226 17.932 165.086 17.988C164.946 18.044 164.876 18.212 164.876 18.492C164.876 18.828 164.904 19.094 164.96 19.29C165.016 19.458 165.212 19.598 165.548 19.71C165.884 19.794 166.122 19.794 166.262 19.71C166.43 19.598 166.612 19.402 166.808 19.122C167.004 18.842 167.116 18.618 167.144 18.45C167.2 18.282 167.116 18.058 166.892 17.778ZM188.186 19.374C187.794 19.234 187.5 19.22 187.304 19.332C187.108 19.444 186.884 19.668 186.632 20.004C186.38 20.34 186.226 20.62 186.17 20.844C186.142 21.068 186.254 21.348 186.506 21.684C186.73 22.02 186.954 22.174 187.178 22.146C187.402 22.118 187.71 22.048 188.102 21.936C188.382 21.824 188.536 21.684 188.564 21.516C188.592 21.348 188.606 21.11 188.606 20.802C188.606 20.438 188.62 20.144 188.648 19.92C188.704 19.668 188.55 19.486 188.186 19.374ZM172.016 19.836C171.96 19.612 171.862 19.486 171.722 19.458C171.61 19.43 171.442 19.416 171.218 19.416C170.91 19.388 170.7 19.528 170.588 19.836C170.504 20.004 170.462 20.144 170.462 20.256C170.49 20.368 170.574 20.48 170.714 20.592C170.882 20.732 171.008 20.788 171.092 20.76C171.204 20.704 171.344 20.634 171.512 20.55C171.68 20.41 171.82 20.312 171.932 20.256C172.044 20.172 172.072 20.032 172.016 19.836ZM182.264 20.382L181.844 19.962L181.466 20.508L181.802 20.886H182.348L182.264 20.382ZM168.152 20.382L167.858 20.214L167.774 20.508L167.9 20.844L168.236 20.676L168.152 20.382ZM170.84 22.398C170.7 22.202 170.504 22.132 170.252 22.188C170.056 22.244 169.888 22.286 169.748 22.314C169.608 22.342 169.538 22.454 169.538 22.65C169.538 22.874 169.58 23.042 169.664 23.154C169.748 23.238 169.902 23.322 170.126 23.406C170.294 23.462 170.406 23.448 170.462 23.364C170.518 23.252 170.616 23.126 170.756 22.986C170.924 22.762 170.952 22.566 170.84 22.398ZM182.18 22.986C182.18 22.622 182.026 22.398 181.718 22.314C181.55 22.258 181.438 22.286 181.382 22.398C181.354 22.482 181.284 22.594 181.172 22.734C181.06 22.874 180.962 22.986 180.878 23.07C180.794 23.154 180.794 23.28 180.878 23.448C181.018 23.588 181.13 23.658 181.214 23.658C181.326 23.63 181.48 23.574 181.676 23.49C181.844 23.434 181.97 23.378 182.054 23.322C182.138 23.266 182.18 23.154 182.18 22.986ZM184.826 22.692C184.602 22.524 184.42 22.454 184.28 22.482C184.14 22.51 183.958 22.594 183.734 22.734C183.51 22.874 183.384 23.014 183.356 23.154C183.328 23.266 183.356 23.448 183.44 23.7C183.524 24.064 183.762 24.26 184.154 24.288C184.546 24.316 184.812 24.148 184.952 23.784C185.036 23.532 185.092 23.336 185.12 23.196C185.148 23.028 185.05 22.86 184.826 22.692ZM165.884 22.776C165.744 22.636 165.562 22.608 165.338 22.692C165.226 22.748 165.128 22.804 165.044 22.86C164.988 22.888 164.96 22.972 164.96 23.112C164.96 23.28 164.974 23.406 165.002 23.49C165.058 23.574 165.17 23.63 165.338 23.658C165.534 23.714 165.688 23.742 165.8 23.742C165.912 23.742 166.024 23.658 166.136 23.49C166.248 23.322 166.262 23.196 166.178 23.112C166.094 23.028 165.996 22.916 165.884 22.776ZM178.778 23.826L178.526 23.532L178.106 23.574L178.19 23.994L178.526 24.162L178.778 23.826ZM172.94 23.784L172.688 23.868L172.73 24.162L173.024 24.246L172.94 23.784ZM174.914 24.036C174.662 23.98 174.466 24.05 174.326 24.246C174.214 24.414 174.116 24.554 174.032 24.666C173.976 24.778 174.004 24.918 174.116 25.086C174.256 25.254 174.382 25.324 174.494 25.296C174.634 25.24 174.802 25.17 174.998 25.086C175.194 25.002 175.348 24.946 175.46 24.918C175.572 24.862 175.628 24.722 175.628 24.498C175.628 24.302 175.558 24.19 175.418 24.162C175.278 24.134 175.11 24.092 174.914 24.036ZM176.804 24.288L176.3 24.204L176.342 24.708L176.678 24.918L176.888 24.624L176.804 24.288ZM169.748 24.834C169.384 24.666 169.09 24.568 168.866 24.54C168.67 24.512 168.432 24.652 168.152 24.96C167.872 25.24 167.746 25.492 167.774 25.716C167.802 25.912 167.914 26.192 168.11 26.556C168.278 26.892 168.446 27.116 168.614 27.228C168.782 27.312 169.048 27.326 169.412 27.27C169.804 27.186 170.07 27.074 170.21 26.934C170.378 26.794 170.49 26.528 170.546 26.136C170.602 25.772 170.56 25.506 170.42 25.338C170.308 25.17 170.084 25.002 169.748 24.834ZM182.6 25.716L182.18 25.926L181.886 26.346L182.432 26.43L182.81 26.22L182.6 25.716ZM177.854 25.758C177.378 25.702 177.028 25.744 176.804 25.884C176.58 26.024 176.356 26.318 176.132 26.766C175.936 27.214 175.852 27.578 175.88 27.858C175.936 28.11 176.16 28.39 176.552 28.698C176.916 29.034 177.224 29.216 177.476 29.244C177.756 29.272 178.106 29.16 178.526 28.908C178.946 28.656 179.198 28.418 179.282 28.194C179.394 27.942 179.394 27.578 179.282 27.102C179.198 26.626 179.058 26.304 178.862 26.136C178.694 25.94 178.358 25.814 177.854 25.758ZM172.142 27.438C171.946 27.41 171.792 27.41 171.68 27.438C171.596 27.438 171.512 27.508 171.428 27.648C171.26 27.9 171.274 28.152 171.47 28.404C171.666 28.656 171.904 28.726 172.184 28.614C172.52 28.502 172.674 28.292 172.646 27.984C172.646 27.816 172.604 27.704 172.52 27.648C172.436 27.564 172.31 27.494 172.142 27.438ZM207.808 30.42C205.064 30.42 202.656 30 200.584 29.16C198.54 28.32 196.916 27.06 195.712 25.38C194.536 23.672 193.892 21.572 193.78 19.08C193.696 16.672 193.696 14.208 193.78 11.688C193.892 9.224 194.536 7.138 195.712 5.43C196.888 3.722 198.512 2.42 200.584 1.524C202.656 0.627998 205.064 0.179998 207.808 0.179998C210.552 0.179998 212.96 0.627998 215.032 1.524C217.104 2.42 218.728 3.722 219.904 5.43C221.108 7.138 221.752 9.224 221.836 11.688C221.92 14.208 221.92 16.672 221.836 19.08C221.724 21.572 221.066 23.672 219.862 25.38C218.686 27.06 217.062 28.32 214.99 29.16C212.946 30 210.552 30.42 207.808 30.42ZM209.908 2.952C209.32 2.7 208.858 2.476 208.522 2.28C208.186 2.084 207.822 2.224 207.43 2.7C207.01 3.176 206.912 3.568 207.136 3.876C207.388 4.184 207.668 4.604 207.976 5.136C208.256 5.584 208.494 5.906 208.69 6.102C208.886 6.27 209.236 6.298 209.74 6.186C210.244 6.074 210.524 5.892 210.58 5.64C210.664 5.36 210.734 4.968 210.79 4.464C210.818 4.016 210.776 3.694 210.664 3.498C210.552 3.302 210.3 3.12 209.908 2.952ZM214.906 3.204C214.654 3.064 214.444 3.064 214.276 3.204C214.136 3.316 214.024 3.414 213.94 3.498C213.884 3.582 213.884 3.708 213.94 3.876C214.024 4.072 214.108 4.184 214.192 4.212C214.304 4.212 214.458 4.212 214.654 4.212C214.794 4.212 214.878 4.17 214.906 4.086C214.934 4.002 214.976 3.89 215.032 3.75C215.088 3.498 215.046 3.316 214.906 3.204ZM203.902 4.59C203.846 4.198 203.692 3.988 203.44 3.96C203.188 3.932 202.866 3.89 202.474 3.834C202.082 3.778 201.76 3.736 201.508 3.708C201.284 3.68 201.088 3.848 200.92 4.212C200.724 4.576 200.71 4.842 200.878 5.01C201.074 5.15 201.326 5.36 201.634 5.64C201.886 5.892 202.096 6.06 202.264 6.144C202.432 6.228 202.67 6.186 202.978 6.018C203.342 5.822 203.608 5.64 203.776 5.472C203.944 5.304 203.986 5.01 203.902 4.59ZM214.57 5.262L214.15 5.094L213.982 5.472L214.108 5.808L214.528 5.724L214.57 5.262ZM217.09 5.892C216.838 5.808 216.642 5.738 216.502 5.682C216.39 5.626 216.25 5.696 216.082 5.892C215.914 6.088 215.844 6.256 215.872 6.396C215.9 6.508 215.984 6.676 216.124 6.9C216.208 7.096 216.306 7.208 216.418 7.236C216.558 7.236 216.726 7.222 216.922 7.194C217.118 7.138 217.23 7.068 217.258 6.984C217.286 6.9 217.314 6.76 217.342 6.564C217.37 6.396 217.37 6.27 217.342 6.186C217.314 6.074 217.23 5.976 217.09 5.892ZM199.828 6.564C199.576 6.564 199.394 6.578 199.282 6.606C199.17 6.634 199.072 6.76 198.988 6.984C198.904 7.208 198.89 7.376 198.946 7.488C199.03 7.572 199.17 7.684 199.366 7.824C199.59 8.02 199.758 8.188 199.87 8.328C200.01 8.44 200.206 8.412 200.458 8.244C200.71 8.076 200.822 7.908 200.794 7.74C200.766 7.572 200.71 7.334 200.626 7.026C200.57 6.802 200.472 6.676 200.332 6.648C200.22 6.592 200.052 6.564 199.828 6.564ZM213.856 7.11L213.478 7.194L213.52 7.572L213.856 7.698L214.108 7.404L213.856 7.11ZM207.808 22.23C208.732 22.23 209.474 21.964 210.034 21.432C210.594 20.872 210.888 20.004 210.916 18.828C211 16.42 211 14.068 210.916 11.772C210.888 10.596 210.58 9.742 209.992 9.21C209.432 8.65 208.704 8.37 207.808 8.37C206.912 8.37 206.184 8.65 205.624 9.21C205.064 9.742 204.756 10.596 204.7 11.772C204.616 14.068 204.616 16.42 204.7 18.828C204.756 20.004 205.05 20.872 205.582 21.432C206.142 21.964 206.884 22.23 207.808 22.23ZM215.242 9.882C214.906 9.77 214.654 9.784 214.486 9.924C214.346 10.036 214.164 10.232 213.94 10.512C213.716 10.792 213.562 11.016 213.478 11.184C213.394 11.352 213.45 11.59 213.646 11.898C213.842 12.206 214.038 12.388 214.234 12.444C214.43 12.472 214.71 12.444 215.074 12.36C215.466 12.248 215.76 12.15 215.956 12.066C216.18 11.954 216.306 11.688 216.334 11.268C216.362 10.82 216.292 10.526 216.124 10.386C215.956 10.218 215.662 10.05 215.242 9.882ZM217.216 9.798L216.88 9.966L216.922 10.344L217.3 10.47L217.384 10.092L217.216 9.798ZM201.55 10.722C201.354 10.694 201.2 10.652 201.088 10.596C200.976 10.512 200.864 10.554 200.752 10.722C200.64 10.89 200.612 11.03 200.668 11.142C200.724 11.226 200.822 11.352 200.962 11.52C201.102 11.66 201.214 11.772 201.298 11.856C201.382 11.912 201.508 11.912 201.676 11.856C201.872 11.772 201.956 11.674 201.928 11.562C201.928 11.45 201.928 11.296 201.928 11.1C201.928 10.932 201.802 10.806 201.55 10.722ZM198.652 11.352C198.596 11.156 198.456 11.058 198.232 11.058C198.092 11.058 197.98 11.072 197.896 11.1C197.812 11.1 197.756 11.17 197.728 11.31C197.644 11.562 197.7 11.772 197.896 11.94C198.092 12.052 198.302 12.038 198.526 11.898C198.694 11.758 198.736 11.576 198.652 11.352ZM202.306 13.788C202.194 13.452 202.04 13.27 201.844 13.242C201.676 13.214 201.41 13.2 201.046 13.2C200.794 13.2 200.626 13.256 200.542 13.368C200.486 13.48 200.416 13.662 200.332 13.914C200.248 14.166 200.178 14.376 200.122 14.544C200.094 14.684 200.192 14.838 200.416 15.006C200.64 15.174 200.822 15.23 200.962 15.174C201.102 15.118 201.284 15.006 201.508 14.838C201.788 14.67 202.012 14.53 202.18 14.418C202.348 14.306 202.39 14.096 202.306 13.788ZM213.94 13.326C213.576 13.186 213.296 13.256 213.1 13.536C212.876 13.816 212.862 14.11 213.058 14.418C213.17 14.586 213.282 14.67 213.394 14.67C213.506 14.67 213.66 14.642 213.856 14.586C214.024 14.558 214.122 14.502 214.15 14.418C214.178 14.306 214.192 14.166 214.192 13.998C214.192 13.83 214.192 13.69 214.192 13.578C214.192 13.466 214.108 13.382 213.94 13.326ZM218.602 13.494C218.378 13.438 218.224 13.466 218.14 13.578C218.084 13.662 218 13.802 217.888 13.998C217.748 14.222 217.762 14.446 217.93 14.67C218.098 14.838 218.224 14.992 218.308 15.132C218.392 15.244 218.532 15.244 218.728 15.132C218.98 15.048 219.134 14.95 219.19 14.838C219.246 14.698 219.26 14.502 219.232 14.25C219.204 13.83 218.994 13.578 218.602 13.494ZM217.678 16.308C217.482 16.28 217.342 16.294 217.258 16.35C217.202 16.406 217.146 16.518 217.09 16.686C217.006 16.826 216.95 16.952 216.922 17.064C216.922 17.148 216.978 17.246 217.09 17.358C217.202 17.498 217.3 17.554 217.384 17.526C217.496 17.47 217.622 17.414 217.762 17.358C218.014 17.218 218.126 17.05 218.098 16.854C218.07 16.686 218.028 16.56 217.972 16.476C217.944 16.392 217.846 16.336 217.678 16.308ZM213.982 16.812C213.59 16.644 213.268 16.714 213.016 17.022C212.736 17.33 212.708 17.652 212.932 17.988C213.044 18.212 213.156 18.338 213.268 18.366C213.408 18.394 213.59 18.394 213.814 18.366C214.038 18.31 214.178 18.226 214.234 18.114C214.29 18.002 214.332 17.834 214.36 17.61C214.388 17.386 214.374 17.218 214.318 17.106C214.29 16.994 214.178 16.896 213.982 16.812ZM198.064 17.778C197.896 17.526 197.728 17.442 197.56 17.526C197.392 17.61 197.154 17.694 196.846 17.778C196.594 17.862 196.398 17.932 196.258 17.988C196.118 18.044 196.048 18.212 196.048 18.492C196.048 18.828 196.076 19.094 196.132 19.29C196.188 19.458 196.384 19.598 196.72 19.71C197.056 19.794 197.294 19.794 197.434 19.71C197.602 19.598 197.784 19.402 197.98 19.122C198.176 18.842 198.288 18.618 198.316 18.45C198.372 18.282 198.288 18.058 198.064 17.778ZM219.358 19.374C218.966 19.234 218.672 19.22 218.476 19.332C218.28 19.444 218.056 19.668 217.804 20.004C217.552 20.34 217.398 20.62 217.342 20.844C217.314 21.068 217.426 21.348 217.678 21.684C217.902 22.02 218.126 22.174 218.35 22.146C218.574 22.118 218.882 22.048 219.274 21.936C219.554 21.824 219.708 21.684 219.736 21.516C219.764 21.348 219.778 21.11 219.778 20.802C219.778 20.438 219.792 20.144 219.82 19.92C219.876 19.668 219.722 19.486 219.358 19.374ZM203.188 19.836C203.132 19.612 203.034 19.486 202.894 19.458C202.782 19.43 202.614 19.416 202.39 19.416C202.082 19.388 201.872 19.528 201.76 19.836C201.676 20.004 201.634 20.144 201.634 20.256C201.662 20.368 201.746 20.48 201.886 20.592C202.054 20.732 202.18 20.788 202.264 20.76C202.376 20.704 202.516 20.634 202.684 20.55C202.852 20.41 202.992 20.312 203.104 20.256C203.216 20.172 203.244 20.032 203.188 19.836ZM213.436 20.382L213.016 19.962L212.638 20.508L212.974 20.886H213.52L213.436 20.382ZM199.324 20.382L199.03 20.214L198.946 20.508L199.072 20.844L199.408 20.676L199.324 20.382ZM202.012 22.398C201.872 22.202 201.676 22.132 201.424 22.188C201.228 22.244 201.06 22.286 200.92 22.314C200.78 22.342 200.71 22.454 200.71 22.65C200.71 22.874 200.752 23.042 200.836 23.154C200.92 23.238 201.074 23.322 201.298 23.406C201.466 23.462 201.578 23.448 201.634 23.364C201.69 23.252 201.788 23.126 201.928 22.986C202.096 22.762 202.124 22.566 202.012 22.398ZM213.352 22.986C213.352 22.622 213.198 22.398 212.89 22.314C212.722 22.258 212.61 22.286 212.554 22.398C212.526 22.482 212.456 22.594 212.344 22.734C212.232 22.874 212.134 22.986 212.05 23.07C211.966 23.154 211.966 23.28 212.05 23.448C212.19 23.588 212.302 23.658 212.386 23.658C212.498 23.63 212.652 23.574 212.848 23.49C213.016 23.434 213.142 23.378 213.226 23.322C213.31 23.266 213.352 23.154 213.352 22.986ZM215.998 22.692C215.774 22.524 215.592 22.454 215.452 22.482C215.312 22.51 215.13 22.594 214.906 22.734C214.682 22.874 214.556 23.014 214.528 23.154C214.5 23.266 214.528 23.448 214.612 23.7C214.696 24.064 214.934 24.26 215.326 24.288C215.718 24.316 215.984 24.148 216.124 23.784C216.208 23.532 216.264 23.336 216.292 23.196C216.32 23.028 216.222 22.86 215.998 22.692ZM197.056 22.776C196.916 22.636 196.734 22.608 196.51 22.692C196.398 22.748 196.3 22.804 196.216 22.86C196.16 22.888 196.132 22.972 196.132 23.112C196.132 23.28 196.146 23.406 196.174 23.49C196.23 23.574 196.342 23.63 196.51 23.658C196.706 23.714 196.86 23.742 196.972 23.742C197.084 23.742 197.196 23.658 197.308 23.49C197.42 23.322 197.434 23.196 197.35 23.112C197.266 23.028 197.168 22.916 197.056 22.776ZM209.95 23.826L209.698 23.532L209.278 23.574L209.362 23.994L209.698 24.162L209.95 23.826ZM204.112 23.784L203.86 23.868L203.902 24.162L204.196 24.246L204.112 23.784ZM206.086 24.036C205.834 23.98 205.638 24.05 205.498 24.246C205.386 24.414 205.288 24.554 205.204 24.666C205.148 24.778 205.176 24.918 205.288 25.086C205.428 25.254 205.554 25.324 205.666 25.296C205.806 25.24 205.974 25.17 206.17 25.086C206.366 25.002 206.52 24.946 206.632 24.918C206.744 24.862 206.8 24.722 206.8 24.498C206.8 24.302 206.73 24.19 206.59 24.162C206.45 24.134 206.282 24.092 206.086 24.036ZM207.976 24.288L207.472 24.204L207.514 24.708L207.85 24.918L208.06 24.624L207.976 24.288ZM200.92 24.834C200.556 24.666 200.262 24.568 200.038 24.54C199.842 24.512 199.604 24.652 199.324 24.96C199.044 25.24 198.918 25.492 198.946 25.716C198.974 25.912 199.086 26.192 199.282 26.556C199.45 26.892 199.618 27.116 199.786 27.228C199.954 27.312 200.22 27.326 200.584 27.27C200.976 27.186 201.242 27.074 201.382 26.934C201.55 26.794 201.662 26.528 201.718 26.136C201.774 25.772 201.732 25.506 201.592 25.338C201.48 25.17 201.256 25.002 200.92 24.834ZM213.772 25.716L213.352 25.926L213.058 26.346L213.604 26.43L213.982 26.22L213.772 25.716ZM209.026 25.758C208.55 25.702 208.2 25.744 207.976 25.884C207.752 26.024 207.528 26.318 207.304 26.766C207.108 27.214 207.024 27.578 207.052 27.858C207.108 28.11 207.332 28.39 207.724 28.698C208.088 29.034 208.396 29.216 208.648 29.244C208.928 29.272 209.278 29.16 209.698 28.908C210.118 28.656 210.37 28.418 210.454 28.194C210.566 27.942 210.566 27.578 210.454 27.102C210.37 26.626 210.23 26.304 210.034 26.136C209.866 25.94 209.53 25.814 209.026 25.758ZM203.314 27.438C203.118 27.41 202.964 27.41 202.852 27.438C202.768 27.438 202.684 27.508 202.6 27.648C202.432 27.9 202.446 28.152 202.642 28.404C202.838 28.656 203.076 28.726 203.356 28.614C203.692 28.502 203.846 28.292 203.818 27.984C203.818 27.816 203.776 27.704 203.692 27.648C203.608 27.564 203.482 27.494 203.314 27.438ZM226.841 30C226.533 30 226.267 29.888 226.043 29.664C225.819 29.44 225.707 29.174 225.707 28.866V1.734C225.707 1.426 225.819 1.16 226.043 0.935999C226.267 0.711998 226.533 0.599998 226.841 0.599998H233.477C234.037 0.599998 234.457 0.753999 234.737 1.062C235.017 1.37 235.199 1.594 235.283 1.734L241.373 11.814L247.463 1.734C247.547 1.594 247.729 1.37 248.009 1.062C248.289 0.753999 248.709 0.599998 249.269 0.599998H255.905C256.213 0.599998 256.479 0.711998 256.703 0.935999C256.927 1.16 257.039 1.426 257.039 1.734V28.866C257.039 29.174 256.927 29.44 256.703 29.664C256.479 29.888 256.213 30 255.905 30H248.303C247.995 30 247.729 29.888 247.505 29.664C247.281 29.44 247.169 29.174 247.169 28.866V17.358L244.397 21.894C244.257 22.118 244.061 22.356 243.809 22.608C243.585 22.832 243.263 22.944 242.843 22.944H239.903C239.483 22.944 239.147 22.832 238.895 22.608C238.671 22.356 238.489 22.118 238.349 21.894L235.577 17.358V28.866C235.577 29.174 235.465 29.44 235.241 29.664C235.017 29.888 234.751 30 234.443 30H226.841ZM255.275 1.776C254.995 1.608 254.715 1.664 254.435 1.944C254.323 2.056 254.281 2.168 254.309 2.28C254.365 2.364 254.435 2.49 254.519 2.658C254.603 2.798 254.659 2.91 254.687 2.994C254.743 3.078 254.855 3.106 255.023 3.078C255.219 3.05 255.359 3.008 255.443 2.952C255.555 2.896 255.625 2.77 255.653 2.574C255.709 2.21 255.583 1.944 255.275 1.776ZM249.059 2.322C248.863 2.238 248.709 2.238 248.597 2.322C248.513 2.406 248.401 2.532 248.261 2.7C248.149 2.84 248.107 2.966 248.135 3.078C248.163 3.162 248.219 3.274 248.303 3.414C248.443 3.638 248.639 3.722 248.891 3.666C249.143 3.582 249.283 3.414 249.311 3.162C249.311 2.938 249.311 2.77 249.311 2.658C249.339 2.518 249.255 2.406 249.059 2.322ZM227.639 2.658L227.093 2.826L226.673 3.246L227.219 3.582L227.765 3.33L227.639 2.658ZM252.377 5.304C252.041 5.22 251.831 5.276 251.747 5.472C251.691 5.668 251.579 5.892 251.411 6.144C251.243 6.424 251.103 6.634 250.991 6.774C250.879 6.914 250.921 7.11 251.117 7.362C251.341 7.614 251.537 7.754 251.705 7.782C251.873 7.782 252.125 7.712 252.461 7.572C252.741 7.46 252.909 7.334 252.965 7.194C253.049 7.026 253.077 6.788 253.049 6.48C253.021 6.144 252.979 5.892 252.923 5.724C252.867 5.528 252.685 5.388 252.377 5.304ZM229.193 6.48C229.137 6.228 229.081 6.046 229.025 5.934C228.969 5.822 228.815 5.766 228.563 5.766C228.311 5.766 228.129 5.808 228.017 5.892C227.933 5.948 227.835 6.102 227.723 6.354C227.639 6.55 227.639 6.704 227.723 6.816C227.807 6.9 227.933 7.012 228.101 7.152C228.353 7.376 228.619 7.39 228.899 7.194C229.179 7.026 229.277 6.788 229.193 6.48ZM233.645 6.354C233.589 6.158 233.421 6.074 233.141 6.102C233.001 6.102 232.875 6.116 232.763 6.144C232.679 6.144 232.609 6.214 232.553 6.354C232.525 6.522 232.553 6.62 232.637 6.648C232.749 6.676 232.875 6.732 233.015 6.816C233.127 6.9 233.211 6.984 233.267 7.068C233.351 7.124 233.463 7.096 233.603 6.984C233.715 6.9 233.757 6.816 233.729 6.732C233.729 6.62 233.701 6.494 233.645 6.354ZM249.185 7.32C248.961 7.32 248.779 7.32 248.639 7.32C248.527 7.292 248.429 7.39 248.345 7.614C248.261 7.866 248.233 8.062 248.261 8.202C248.289 8.314 248.401 8.454 248.597 8.622C248.793 8.79 248.947 8.832 249.059 8.748C249.171 8.664 249.325 8.552 249.521 8.412C249.717 8.3 249.857 8.202 249.941 8.118C250.025 8.034 250.039 7.88 249.983 7.656C249.927 7.46 249.829 7.362 249.689 7.362C249.577 7.334 249.409 7.32 249.185 7.32ZM236.459 9.084C236.235 8.86 236.039 8.72 235.871 8.664C235.731 8.58 235.535 8.608 235.283 8.748C234.975 8.916 234.765 9.084 234.653 9.252C234.569 9.392 234.569 9.644 234.653 10.008C234.709 10.316 234.807 10.512 234.947 10.596C235.115 10.652 235.367 10.708 235.703 10.764C235.955 10.792 236.123 10.75 236.207 10.638C236.291 10.498 236.389 10.316 236.501 10.092C236.613 9.868 236.683 9.686 236.711 9.546C236.739 9.406 236.655 9.252 236.459 9.084ZM232.091 9.168C231.335 8.888 230.761 8.832 230.369 9C229.977 9.14 229.529 9.518 229.025 10.134C228.773 10.498 228.675 10.792 228.731 11.016C228.787 11.24 228.927 11.478 229.151 11.73C229.375 11.982 229.599 12.29 229.823 12.654C230.159 13.13 230.425 13.522 230.621 13.83C230.817 14.11 231.195 14.166 231.755 13.998C232.343 13.83 232.651 13.578 232.679 13.242C232.735 12.906 232.777 12.43 232.805 11.814C232.833 11.366 232.875 10.974 232.931 10.638C232.987 10.302 232.959 10.022 232.847 9.798C232.763 9.546 232.511 9.336 232.091 9.168ZM253.805 9.252C253.609 9.224 253.455 9.21 253.343 9.21C253.231 9.21 253.133 9.308 253.049 9.504C252.965 9.672 252.979 9.784 253.091 9.84C253.203 9.896 253.329 9.98 253.469 10.092C253.581 10.232 253.665 10.358 253.721 10.47C253.777 10.582 253.889 10.596 254.057 10.512C254.365 10.372 254.491 10.106 254.435 9.714C254.407 9.546 254.337 9.434 254.225 9.378C254.141 9.322 254.001 9.28 253.805 9.252ZM252.419 11.982C252.279 11.814 252.139 11.744 251.999 11.772C251.859 11.772 251.677 11.814 251.453 11.898C251.285 11.954 251.201 12.038 251.201 12.15C251.201 12.262 251.201 12.402 251.201 12.57C251.201 12.85 251.313 13.018 251.537 13.074C251.789 13.158 251.985 13.242 252.125 13.326C252.265 13.41 252.405 13.34 252.545 13.116C252.713 12.892 252.783 12.71 252.755 12.57C252.727 12.402 252.615 12.206 252.419 11.982ZM245.153 12.486C244.789 12.262 244.495 12.178 244.271 12.234C244.047 12.262 243.767 12.416 243.431 12.696C242.983 13.06 242.591 13.34 242.255 13.536C241.947 13.704 241.891 14.054 242.087 14.586C242.311 15.174 242.577 15.51 242.885 15.594C243.221 15.678 243.711 15.706 244.355 15.678C244.859 15.65 245.181 15.524 245.321 15.3C245.489 15.076 245.657 14.712 245.825 14.208C245.937 13.788 245.937 13.466 245.825 13.242C245.741 13.018 245.517 12.766 245.153 12.486ZM249.311 13.2C249.115 13.004 248.933 12.948 248.765 13.032C248.569 13.144 248.485 13.326 248.513 13.578C248.541 13.746 248.569 13.886 248.597 13.998C248.653 14.082 248.765 14.138 248.933 14.166C249.101 14.194 249.199 14.166 249.227 14.082C249.283 13.97 249.353 13.844 249.437 13.704C249.521 13.536 249.479 13.368 249.311 13.2ZM237.005 13.2C236.921 13.088 236.781 13.088 236.585 13.2C236.445 13.256 236.333 13.298 236.249 13.326C236.193 13.354 236.165 13.424 236.165 13.536C236.193 13.76 236.347 13.9 236.627 13.956C236.907 14.012 237.089 13.942 237.173 13.746C237.257 13.634 237.271 13.55 237.215 13.494C237.187 13.41 237.117 13.312 237.005 13.2ZM252.335 14.88C252.335 14.684 252.349 14.53 252.377 14.418C252.433 14.306 252.377 14.222 252.209 14.166C252.013 14.11 251.873 14.124 251.789 14.208C251.733 14.292 251.635 14.404 251.495 14.544C251.383 14.74 251.397 14.95 251.537 15.174C251.649 15.314 251.733 15.412 251.789 15.468C251.873 15.524 251.999 15.524 252.167 15.468C252.307 15.44 252.363 15.384 252.335 15.3C252.335 15.188 252.335 15.048 252.335 14.88ZM240.281 14.754C239.945 14.614 239.693 14.614 239.525 14.754C239.357 14.894 239.161 15.118 238.937 15.426C238.685 15.734 238.489 15.986 238.349 16.182C238.209 16.35 238.251 16.602 238.475 16.938C238.727 17.33 238.965 17.568 239.189 17.652C239.413 17.708 239.735 17.68 240.155 17.568C240.547 17.456 240.743 17.288 240.743 17.064C240.771 16.84 240.799 16.532 240.827 16.14C240.855 15.776 240.855 15.496 240.827 15.3C240.827 15.076 240.645 14.894 240.281 14.754ZM227.807 15.174L227.513 14.922L227.387 15.3L227.513 15.552L227.849 15.51L227.807 15.174ZM255.443 17.106C255.275 16.574 255.065 16.238 254.813 16.098C254.561 15.93 254.155 15.846 253.595 15.846C253.063 15.846 252.685 15.944 252.461 16.14C252.265 16.308 252.083 16.644 251.915 17.148C251.775 17.624 251.761 17.974 251.873 18.198C251.985 18.422 252.251 18.688 252.671 18.996C253.007 19.248 253.287 19.332 253.511 19.248C253.735 19.164 254.015 18.996 254.351 18.744C254.743 18.464 255.051 18.24 255.275 18.072C255.527 17.876 255.583 17.554 255.443 17.106ZM234.443 15.846L234.233 16.014L234.191 16.308L234.527 16.35L234.611 16.056L234.443 15.846ZM229.613 17.4C229.277 17.176 229.011 17.008 228.815 16.896C228.619 16.756 228.367 16.798 228.059 17.022C227.723 17.274 227.569 17.512 227.597 17.736C227.625 17.96 227.709 18.268 227.849 18.66C227.961 19.052 228.087 19.332 228.227 19.5C228.367 19.64 228.633 19.71 229.025 19.71C229.529 19.71 229.921 19.696 230.201 19.668C230.509 19.612 230.733 19.346 230.873 18.87C231.013 18.394 230.929 18.1 230.621 17.988C230.341 17.876 230.005 17.68 229.613 17.4ZM234.065 17.484L233.603 17.19L233.393 17.652L233.519 17.988L234.065 18.03V17.484ZM242.339 18.03C242.115 17.918 241.947 17.904 241.835 17.988C241.723 18.072 241.583 18.198 241.415 18.366C241.191 18.59 241.163 18.856 241.331 19.164C241.415 19.332 241.485 19.458 241.541 19.542C241.625 19.626 241.779 19.654 242.003 19.626C242.227 19.598 242.395 19.556 242.507 19.5C242.619 19.416 242.703 19.262 242.759 19.038C242.787 18.758 242.773 18.548 242.717 18.408C242.689 18.268 242.563 18.142 242.339 18.03ZM251.915 20.76C251.579 20.48 251.313 20.424 251.117 20.592C250.921 20.732 250.641 20.914 250.277 21.138C249.885 21.39 249.535 21.572 249.227 21.684C248.947 21.796 248.877 22.09 249.017 22.566C249.129 23.07 249.311 23.378 249.563 23.49C249.843 23.574 250.249 23.63 250.781 23.658C251.201 23.686 251.467 23.602 251.579 23.406C251.719 23.182 251.859 22.874 251.999 22.482C252.167 22.09 252.279 21.782 252.335 21.558C252.391 21.306 252.251 21.04 251.915 20.76ZM254.435 20.928L253.889 21.054L253.721 21.642L254.267 21.726L254.687 21.474L254.435 20.928ZM231.125 22.608C231.125 22.384 231.125 22.216 231.125 22.104C231.125 21.992 231.027 21.908 230.831 21.852C230.635 21.796 230.495 21.824 230.411 21.936C230.355 22.02 230.271 22.146 230.159 22.314C230.047 22.51 230.075 22.706 230.243 22.902C230.411 23.154 230.607 23.238 230.831 23.154C231.027 23.07 231.125 22.888 231.125 22.608ZM254.435 26.178C254.239 25.842 254.071 25.59 253.931 25.422C253.819 25.254 253.567 25.212 253.175 25.296C252.783 25.38 252.517 25.506 252.377 25.674C252.237 25.842 252.139 26.136 252.083 26.556C252.055 26.948 252.097 27.228 252.209 27.396C252.321 27.564 252.559 27.732 252.923 27.9C253.343 28.096 253.679 28.25 253.931 28.362C254.183 28.446 254.463 28.306 254.771 27.942C255.079 27.634 255.149 27.368 254.981 27.144C254.841 26.892 254.659 26.57 254.435 26.178ZM231.755 25.59L231.335 25.338L230.747 25.296L230.789 26.01H231.419L231.755 25.59ZM249.101 26.22L248.681 26.43V26.934L249.185 27.102L249.479 26.598L249.101 26.22Z" fill="#EBEBEB"/>
</svg>
