<svg width="32" height="32" viewBox="0 0 32 32" fill="none" xmlns="http://www.w3.org/2000/svg">
<path d="M16 22.6667C19.6818 22.6667 22.6666 19.6818 22.6666 16C22.6666 12.3181 19.6818 9.33333 16 9.33333C12.3181 9.33333 9.33331 12.3181 9.33331 16C9.33331 19.6818 12.3181 22.6667 16 22.6667Z" stroke="#FFFEFE" stroke-opacity="0.4" stroke-width="1.5" stroke-linecap="round" stroke-linejoin="round"/>
<path d="M1 22.6667V9.33333C1 4.73097 4.73097 1 9.33333 1H22.6667C27.269 1 31 4.73097 31 9.33333V22.6667C31 27.269 27.269 31 22.6667 31H9.33333C4.73097 31 1 27.269 1 22.6667Z" stroke="#FFFEFE" stroke-opacity="0.4" stroke-width="1.5"/>
<path d="M25.1667 6.85L25.1834 6.83148" stroke="#FFFEFE" stroke-opacity="0.4" stroke-width="1.5" stroke-linecap="round" stroke-linejoin="round"/>
</svg>
